G04 #@! TF.GenerationSoftware,KiCad,Pcbnew,5.0-dev-unknown-bc6763e~61~ubuntu16.04.1*
G04 #@! TF.CreationDate,2018-02-24T23:45:45-08:00*
G04 #@! TF.ProjectId,16-Tiny-Pixels-BeforePanel,31362D54696E792D506978656C732D42,rev?*
G04 #@! TF.SameCoordinates,Original*
G04 #@! TF.FileFunction,Copper,L2,Bot,Signal*
G04 #@! TF.FilePolarity,Positive*
%FSLAX46Y46*%
G04 Gerber Fmt 4.6, Leading zero omitted, Abs format (unit mm)*
G04 Created by KiCad (PCBNEW 5.0-dev-unknown-bc6763e~61~ubuntu16.04.1) date Sat Feb 24 23:45:45 2018*
%MOMM*%
%LPD*%
G01*
G04 APERTURE LIST*
%ADD10R,1.800000X1.070000*%
%ADD11O,1.700000X1.700000*%
%ADD12R,1.700000X1.700000*%
%ADD13R,1.800000X1.245000*%
%ADD14R,0.600000X1.550000*%
%ADD15R,1.175000X1.900000*%
%ADD16R,2.375000X1.900000*%
%ADD17R,1.475000X2.100000*%
%ADD18R,0.450000X1.380000*%
%ADD19C,0.889000*%
%ADD20C,0.254000*%
%ADD21C,0.512000*%
G04 APERTURE END LIST*
D10*
X49376449Y-30319491D03*
X49376449Y-33329491D03*
X42090000Y-30285000D03*
X42090000Y-33295000D03*
D11*
X42440000Y-46360000D03*
X42440000Y-43820000D03*
X44980000Y-46360000D03*
X44980000Y-43820000D03*
X47520000Y-46360000D03*
D12*
X47520000Y-43820000D03*
D13*
X46926449Y-30321991D03*
X46926449Y-33506991D03*
X44586449Y-30294491D03*
X44586449Y-33479491D03*
X39630000Y-30217500D03*
X39630000Y-33402500D03*
D14*
X43165000Y-41010000D03*
X44435000Y-41010000D03*
X45705000Y-41010000D03*
X46975000Y-41010000D03*
X46975000Y-35610000D03*
X45705000Y-35610000D03*
X44435000Y-35610000D03*
X43165000Y-35610000D03*
D15*
X45920000Y-21560000D03*
X44240000Y-21560000D03*
D16*
X47990000Y-21560000D03*
X42170000Y-21560000D03*
D17*
X47542500Y-23860000D03*
X42617500Y-23860000D03*
D18*
X46380000Y-24220000D03*
X45730000Y-24220000D03*
X45080000Y-24220000D03*
X44430000Y-24220000D03*
X43780000Y-24220000D03*
D19*
X40770000Y-35870000D03*
X49430000Y-35870000D03*
X42310000Y-49340000D03*
X47400000Y-49340000D03*
X54490000Y-23300000D03*
X50613306Y-22584636D03*
X36210000Y-23250000D03*
X28440000Y-28220000D03*
X23150000Y-35830000D03*
X21470000Y-44570000D03*
X23170000Y-53730000D03*
X28100000Y-61440000D03*
X35830000Y-66770000D03*
X44709283Y-68530717D03*
X53780000Y-66710000D03*
X61560000Y-61886159D03*
X66670000Y-53880000D03*
X68600717Y-45220717D03*
X66990000Y-35990000D03*
X61750000Y-28470000D03*
D20*
X42090000Y-33295000D02*
X42090000Y-34550000D01*
X42090000Y-34550000D02*
X40770000Y-35870000D01*
X50657450Y-34342550D02*
X50657450Y-34245492D01*
X50657450Y-34245492D02*
X49741449Y-33329491D01*
X49741449Y-33329491D02*
X49376449Y-33329491D01*
X49430000Y-35870000D02*
X49874499Y-35425501D01*
X49874499Y-35425501D02*
X49874499Y-35125501D01*
X49874499Y-35125501D02*
X50657450Y-34342550D01*
X46975000Y-35610000D02*
X49170000Y-35610000D01*
X49170000Y-35610000D02*
X49430000Y-35870000D01*
X46380000Y-24220000D02*
X46380000Y-25164000D01*
X50657450Y-29441450D02*
X50657450Y-34342550D01*
X46380000Y-25164000D02*
X50657450Y-29441450D01*
X49376449Y-35623551D02*
X49210000Y-35790000D01*
X49170000Y-35830000D02*
X49210000Y-35790000D01*
X47520000Y-46360000D02*
X47520000Y-49220000D01*
X47520000Y-49220000D02*
X47400000Y-49340000D01*
X43780000Y-24220000D02*
X43780000Y-25164000D01*
X43780000Y-25164000D02*
X39630000Y-29314000D01*
X39630000Y-29314000D02*
X39630000Y-30217500D01*
D21*
X47520000Y-46360000D02*
X47520000Y-47562081D01*
X43165000Y-41010000D02*
X43165000Y-39995000D01*
X43165000Y-39995000D02*
X43950000Y-39210000D01*
X61750000Y-28470000D02*
X61750000Y-29460545D01*
X61750000Y-29460545D02*
X67214407Y-34924952D01*
X67214407Y-34924952D02*
X67420000Y-35410036D01*
D20*
X45080000Y-24220000D02*
X45080000Y-28475542D01*
X45080000Y-28475542D02*
X46926449Y-30321991D01*
X46926449Y-30321991D02*
X49373949Y-30321991D01*
X49373949Y-30321991D02*
X49376449Y-30319491D01*
X44430000Y-24220000D02*
X44430000Y-30138042D01*
X44430000Y-30138042D02*
X44586449Y-30294491D01*
X42090000Y-30285000D02*
X44576958Y-30285000D01*
X44576958Y-30285000D02*
X44586449Y-30294491D01*
X39630000Y-33402500D02*
X39907500Y-33402500D01*
X39907500Y-33402500D02*
X42090000Y-31220000D01*
X42090000Y-31074000D02*
X42090000Y-30285000D01*
X42090000Y-31220000D02*
X42090000Y-31074000D01*
X44450000Y-30158042D02*
X44586449Y-30294491D01*
X45705000Y-41010000D02*
X45705000Y-41485000D01*
X45705000Y-41485000D02*
X47520000Y-43300000D01*
X47520000Y-43300000D02*
X47520000Y-43820000D01*
X44435000Y-41010000D02*
X44435000Y-43275000D01*
X44435000Y-43275000D02*
X44980000Y-43820000D01*
X50030000Y-51090000D02*
X51490000Y-49630000D01*
X44980000Y-50590000D02*
X45480000Y-51090000D01*
X45480000Y-51090000D02*
X50030000Y-51090000D01*
X46975000Y-40535000D02*
X46975000Y-41010000D01*
X44980000Y-46360000D02*
X44980000Y-50590000D01*
X51490000Y-40420000D02*
X50530000Y-39460000D01*
X51490000Y-49630000D02*
X51490000Y-40420000D01*
X50530000Y-39460000D02*
X47870000Y-39460000D01*
X47870000Y-39460000D02*
X47870000Y-39640000D01*
X47870000Y-39640000D02*
X46975000Y-40535000D01*
X43165000Y-35610000D02*
X42611000Y-35610000D01*
X42611000Y-35610000D02*
X42440000Y-35781000D01*
X42440000Y-35781000D02*
X42440000Y-42617919D01*
X42440000Y-42617919D02*
X42440000Y-43820000D01*
X45920000Y-21560000D02*
X47990000Y-21560000D01*
X42170000Y-21560000D02*
X44240000Y-21560000D01*
X42170000Y-21560000D02*
X42170000Y-23412500D01*
X42170000Y-23412500D02*
X42617500Y-23860000D01*
X45920000Y-21560000D02*
X44240000Y-21560000D01*
X47542500Y-23860000D02*
X47542500Y-22007500D01*
X47542500Y-22007500D02*
X47990000Y-21560000D01*
X45705000Y-35610000D02*
X45705000Y-34450940D01*
X45705000Y-34450940D02*
X46648949Y-33506991D01*
X46648949Y-33506991D02*
X46926449Y-33506991D01*
X44435000Y-35610000D02*
X44435000Y-33630940D01*
X44435000Y-33630940D02*
X44586449Y-33479491D01*
G36*
X40335060Y-22510000D02*
X40384343Y-22757765D01*
X40524691Y-22967809D01*
X40734735Y-23108157D01*
X40982500Y-23157440D01*
X41232560Y-23157440D01*
X41232560Y-24910000D01*
X41281843Y-25157765D01*
X41422191Y-25367809D01*
X41632235Y-25508157D01*
X41880000Y-25557440D01*
X43355000Y-25557440D01*
X43425074Y-25543502D01*
X43428691Y-25545000D01*
X43508750Y-25545000D01*
X43531397Y-25522353D01*
X43602765Y-25508157D01*
X43652998Y-25474592D01*
X43652998Y-25545000D01*
X43668000Y-25545000D01*
X43668001Y-29028221D01*
X43438684Y-29073834D01*
X43279851Y-29179964D01*
X43237765Y-29151843D01*
X42990000Y-29102560D01*
X41190000Y-29102560D01*
X40977795Y-29144770D01*
X40889699Y-29056673D01*
X40656310Y-28960000D01*
X39915750Y-28960000D01*
X39757000Y-29118750D01*
X39757000Y-30090500D01*
X39777000Y-30090500D01*
X39777000Y-30344500D01*
X39757000Y-30344500D01*
X39757000Y-31316250D01*
X39915750Y-31475000D01*
X40656310Y-31475000D01*
X40828829Y-31403540D01*
X40099810Y-32132560D01*
X38730000Y-32132560D01*
X38482235Y-32181843D01*
X38272191Y-32322191D01*
X38131843Y-32532235D01*
X38082560Y-32780000D01*
X38082560Y-34025000D01*
X38131843Y-34272765D01*
X38272191Y-34482809D01*
X38482235Y-34623157D01*
X38730000Y-34672440D01*
X40530000Y-34672440D01*
X40777765Y-34623157D01*
X40987809Y-34482809D01*
X41014696Y-34442570D01*
X41102362Y-34460008D01*
X40771870Y-34790500D01*
X40555274Y-34790500D01*
X40158512Y-34954844D01*
X39854844Y-35258512D01*
X39690500Y-35655274D01*
X39690500Y-36084726D01*
X39854844Y-36481488D01*
X40158512Y-36785156D01*
X40555274Y-36949500D01*
X40984726Y-36949500D01*
X41381488Y-36785156D01*
X41678000Y-36488644D01*
X41678001Y-42542867D01*
X41678000Y-42542872D01*
X41678000Y-42543158D01*
X41369375Y-42749375D01*
X41041161Y-43240582D01*
X40925908Y-43820000D01*
X41041161Y-44399418D01*
X41369375Y-44890625D01*
X41667761Y-45090000D01*
X41369375Y-45289375D01*
X41041161Y-45780582D01*
X40925908Y-46360000D01*
X41041161Y-46939418D01*
X41369375Y-47430625D01*
X41860582Y-47758839D01*
X42293744Y-47845000D01*
X42586256Y-47845000D01*
X43019418Y-47758839D01*
X43510625Y-47430625D01*
X43710000Y-47132239D01*
X43909375Y-47430625D01*
X44218000Y-47636842D01*
X44218001Y-50514952D01*
X44203073Y-50590000D01*
X44218001Y-50665048D01*
X44262213Y-50887317D01*
X44430630Y-51139371D01*
X44494251Y-51181881D01*
X44888118Y-51575749D01*
X44930629Y-51639371D01*
X45182683Y-51807788D01*
X45404952Y-51852000D01*
X45404953Y-51852000D01*
X45480000Y-51866928D01*
X45555047Y-51852000D01*
X49954957Y-51852000D01*
X50030000Y-51866927D01*
X50105043Y-51852000D01*
X50105048Y-51852000D01*
X50327317Y-51807788D01*
X50579371Y-51639371D01*
X50621883Y-51575747D01*
X51975750Y-50221881D01*
X52039371Y-50179371D01*
X52207788Y-49927317D01*
X52252000Y-49705048D01*
X52252000Y-49705047D01*
X52266928Y-49630000D01*
X52252000Y-49554953D01*
X52252000Y-40495042D01*
X52266927Y-40419999D01*
X52252000Y-40344956D01*
X52252000Y-40344952D01*
X52207788Y-40122683D01*
X52117285Y-39987235D01*
X52081882Y-39934251D01*
X52039371Y-39870629D01*
X51975749Y-39828118D01*
X51121883Y-38974253D01*
X51079371Y-38910629D01*
X50827317Y-38742212D01*
X50605048Y-38698000D01*
X50605043Y-38698000D01*
X50530000Y-38683073D01*
X50454957Y-38698000D01*
X47945048Y-38698000D01*
X47870000Y-38683072D01*
X47794952Y-38698000D01*
X47572683Y-38742212D01*
X47320629Y-38910629D01*
X47152212Y-39162683D01*
X47123043Y-39309326D01*
X46844810Y-39587560D01*
X46675000Y-39587560D01*
X46427235Y-39636843D01*
X46340000Y-39695132D01*
X46252765Y-39636843D01*
X46005000Y-39587560D01*
X45405000Y-39587560D01*
X45157235Y-39636843D01*
X45070000Y-39695132D01*
X44982765Y-39636843D01*
X44735000Y-39587560D01*
X44135000Y-39587560D01*
X43887235Y-39636843D01*
X43808028Y-39689768D01*
X43591310Y-39600000D01*
X43450750Y-39600000D01*
X43292002Y-39758748D01*
X43292002Y-39600000D01*
X43202000Y-39600000D01*
X43202000Y-37032440D01*
X43465000Y-37032440D01*
X43712765Y-36983157D01*
X43800000Y-36924868D01*
X43887235Y-36983157D01*
X44135000Y-37032440D01*
X44735000Y-37032440D01*
X44982765Y-36983157D01*
X45070000Y-36924868D01*
X45157235Y-36983157D01*
X45405000Y-37032440D01*
X46005000Y-37032440D01*
X46252765Y-36983157D01*
X46340000Y-36924868D01*
X46427235Y-36983157D01*
X46675000Y-37032440D01*
X47275000Y-37032440D01*
X47522765Y-36983157D01*
X47732809Y-36842809D01*
X47873157Y-36632765D01*
X47922440Y-36385000D01*
X47922440Y-36372000D01*
X48469493Y-36372000D01*
X48514844Y-36481488D01*
X48818512Y-36785156D01*
X49215274Y-36949500D01*
X49644726Y-36949500D01*
X50041488Y-36785156D01*
X50345156Y-36481488D01*
X50509500Y-36084726D01*
X50509500Y-35846718D01*
X50592287Y-35722818D01*
X50636499Y-35500549D01*
X50636499Y-35500548D01*
X50651253Y-35426378D01*
X51143199Y-34934432D01*
X51206821Y-34891921D01*
X51375238Y-34639867D01*
X51419450Y-34417598D01*
X51419450Y-34417593D01*
X51434377Y-34342550D01*
X51424724Y-34294021D01*
X51434377Y-34245491D01*
X51419450Y-34170448D01*
X51419450Y-29516497D01*
X51434378Y-29441450D01*
X51411549Y-29326682D01*
X51375238Y-29144133D01*
X51206821Y-28892079D01*
X51143200Y-28849569D01*
X47851070Y-25557440D01*
X48280000Y-25557440D01*
X48527765Y-25508157D01*
X48737809Y-25367809D01*
X48878157Y-25157765D01*
X48927440Y-24910000D01*
X48927440Y-23157440D01*
X49177500Y-23157440D01*
X49425265Y-23108157D01*
X49635309Y-22967809D01*
X49775657Y-22757765D01*
X49824940Y-22510000D01*
X49824940Y-21704955D01*
X54356471Y-22606333D01*
X62237639Y-27872361D01*
X67503667Y-35753529D01*
X69352850Y-45050000D01*
X67503667Y-54346471D01*
X62237639Y-62227639D01*
X54356471Y-67493667D01*
X45060000Y-69342850D01*
X35763529Y-67493667D01*
X27882361Y-62227639D01*
X22616333Y-54346471D01*
X20767150Y-45050000D01*
X22616333Y-35753529D01*
X26124457Y-30503250D01*
X38095000Y-30503250D01*
X38095000Y-30966309D01*
X38191673Y-31199698D01*
X38370301Y-31378327D01*
X38603690Y-31475000D01*
X39344250Y-31475000D01*
X39503000Y-31316250D01*
X39503000Y-30344500D01*
X38253750Y-30344500D01*
X38095000Y-30503250D01*
X26124457Y-30503250D01*
X26815727Y-29468691D01*
X38095000Y-29468691D01*
X38095000Y-29931750D01*
X38253750Y-30090500D01*
X39503000Y-30090500D01*
X39503000Y-29118750D01*
X39344250Y-28960000D01*
X38603690Y-28960000D01*
X38370301Y-29056673D01*
X38191673Y-29235302D01*
X38095000Y-29468691D01*
X26815727Y-29468691D01*
X27882361Y-27872361D01*
X35763529Y-22606333D01*
X40335060Y-21696999D01*
X40335060Y-22510000D01*
X40335060Y-22510000D01*
G37*
X40335060Y-22510000D02*
X40384343Y-22757765D01*
X40524691Y-22967809D01*
X40734735Y-23108157D01*
X40982500Y-23157440D01*
X41232560Y-23157440D01*
X41232560Y-24910000D01*
X41281843Y-25157765D01*
X41422191Y-25367809D01*
X41632235Y-25508157D01*
X41880000Y-25557440D01*
X43355000Y-25557440D01*
X43425074Y-25543502D01*
X43428691Y-25545000D01*
X43508750Y-25545000D01*
X43531397Y-25522353D01*
X43602765Y-25508157D01*
X43652998Y-25474592D01*
X43652998Y-25545000D01*
X43668000Y-25545000D01*
X43668001Y-29028221D01*
X43438684Y-29073834D01*
X43279851Y-29179964D01*
X43237765Y-29151843D01*
X42990000Y-29102560D01*
X41190000Y-29102560D01*
X40977795Y-29144770D01*
X40889699Y-29056673D01*
X40656310Y-28960000D01*
X39915750Y-28960000D01*
X39757000Y-29118750D01*
X39757000Y-30090500D01*
X39777000Y-30090500D01*
X39777000Y-30344500D01*
X39757000Y-30344500D01*
X39757000Y-31316250D01*
X39915750Y-31475000D01*
X40656310Y-31475000D01*
X40828829Y-31403540D01*
X40099810Y-32132560D01*
X38730000Y-32132560D01*
X38482235Y-32181843D01*
X38272191Y-32322191D01*
X38131843Y-32532235D01*
X38082560Y-32780000D01*
X38082560Y-34025000D01*
X38131843Y-34272765D01*
X38272191Y-34482809D01*
X38482235Y-34623157D01*
X38730000Y-34672440D01*
X40530000Y-34672440D01*
X40777765Y-34623157D01*
X40987809Y-34482809D01*
X41014696Y-34442570D01*
X41102362Y-34460008D01*
X40771870Y-34790500D01*
X40555274Y-34790500D01*
X40158512Y-34954844D01*
X39854844Y-35258512D01*
X39690500Y-35655274D01*
X39690500Y-36084726D01*
X39854844Y-36481488D01*
X40158512Y-36785156D01*
X40555274Y-36949500D01*
X40984726Y-36949500D01*
X41381488Y-36785156D01*
X41678000Y-36488644D01*
X41678001Y-42542867D01*
X41678000Y-42542872D01*
X41678000Y-42543158D01*
X41369375Y-42749375D01*
X41041161Y-43240582D01*
X40925908Y-43820000D01*
X41041161Y-44399418D01*
X41369375Y-44890625D01*
X41667761Y-45090000D01*
X41369375Y-45289375D01*
X41041161Y-45780582D01*
X40925908Y-46360000D01*
X41041161Y-46939418D01*
X41369375Y-47430625D01*
X41860582Y-47758839D01*
X42293744Y-47845000D01*
X42586256Y-47845000D01*
X43019418Y-47758839D01*
X43510625Y-47430625D01*
X43710000Y-47132239D01*
X43909375Y-47430625D01*
X44218000Y-47636842D01*
X44218001Y-50514952D01*
X44203073Y-50590000D01*
X44218001Y-50665048D01*
X44262213Y-50887317D01*
X44430630Y-51139371D01*
X44494251Y-51181881D01*
X44888118Y-51575749D01*
X44930629Y-51639371D01*
X45182683Y-51807788D01*
X45404952Y-51852000D01*
X45404953Y-51852000D01*
X45480000Y-51866928D01*
X45555047Y-51852000D01*
X49954957Y-51852000D01*
X50030000Y-51866927D01*
X50105043Y-51852000D01*
X50105048Y-51852000D01*
X50327317Y-51807788D01*
X50579371Y-51639371D01*
X50621883Y-51575747D01*
X51975750Y-50221881D01*
X52039371Y-50179371D01*
X52207788Y-49927317D01*
X52252000Y-49705048D01*
X52252000Y-49705047D01*
X52266928Y-49630000D01*
X52252000Y-49554953D01*
X52252000Y-40495042D01*
X52266927Y-40419999D01*
X52252000Y-40344956D01*
X52252000Y-40344952D01*
X52207788Y-40122683D01*
X52117285Y-39987235D01*
X52081882Y-39934251D01*
X52039371Y-39870629D01*
X51975749Y-39828118D01*
X51121883Y-38974253D01*
X51079371Y-38910629D01*
X50827317Y-38742212D01*
X50605048Y-38698000D01*
X50605043Y-38698000D01*
X50530000Y-38683073D01*
X50454957Y-38698000D01*
X47945048Y-38698000D01*
X47870000Y-38683072D01*
X47794952Y-38698000D01*
X47572683Y-38742212D01*
X47320629Y-38910629D01*
X47152212Y-39162683D01*
X47123043Y-39309326D01*
X46844810Y-39587560D01*
X46675000Y-39587560D01*
X46427235Y-39636843D01*
X46340000Y-39695132D01*
X46252765Y-39636843D01*
X46005000Y-39587560D01*
X45405000Y-39587560D01*
X45157235Y-39636843D01*
X45070000Y-39695132D01*
X44982765Y-39636843D01*
X44735000Y-39587560D01*
X44135000Y-39587560D01*
X43887235Y-39636843D01*
X43808028Y-39689768D01*
X43591310Y-39600000D01*
X43450750Y-39600000D01*
X43292002Y-39758748D01*
X43292002Y-39600000D01*
X43202000Y-39600000D01*
X43202000Y-37032440D01*
X43465000Y-37032440D01*
X43712765Y-36983157D01*
X43800000Y-36924868D01*
X43887235Y-36983157D01*
X44135000Y-37032440D01*
X44735000Y-37032440D01*
X44982765Y-36983157D01*
X45070000Y-36924868D01*
X45157235Y-36983157D01*
X45405000Y-37032440D01*
X46005000Y-37032440D01*
X46252765Y-36983157D01*
X46340000Y-36924868D01*
X46427235Y-36983157D01*
X46675000Y-37032440D01*
X47275000Y-37032440D01*
X47522765Y-36983157D01*
X47732809Y-36842809D01*
X47873157Y-36632765D01*
X47922440Y-36385000D01*
X47922440Y-36372000D01*
X48469493Y-36372000D01*
X48514844Y-36481488D01*
X48818512Y-36785156D01*
X49215274Y-36949500D01*
X49644726Y-36949500D01*
X50041488Y-36785156D01*
X50345156Y-36481488D01*
X50509500Y-36084726D01*
X50509500Y-35846718D01*
X50592287Y-35722818D01*
X50636499Y-35500549D01*
X50636499Y-35500548D01*
X50651253Y-35426378D01*
X51143199Y-34934432D01*
X51206821Y-34891921D01*
X51375238Y-34639867D01*
X51419450Y-34417598D01*
X51419450Y-34417593D01*
X51434377Y-34342550D01*
X51424724Y-34294021D01*
X51434377Y-34245491D01*
X51419450Y-34170448D01*
X51419450Y-29516497D01*
X51434378Y-29441450D01*
X51411549Y-29326682D01*
X51375238Y-29144133D01*
X51206821Y-28892079D01*
X51143200Y-28849569D01*
X47851070Y-25557440D01*
X48280000Y-25557440D01*
X48527765Y-25508157D01*
X48737809Y-25367809D01*
X48878157Y-25157765D01*
X48927440Y-24910000D01*
X48927440Y-23157440D01*
X49177500Y-23157440D01*
X49425265Y-23108157D01*
X49635309Y-22967809D01*
X49775657Y-22757765D01*
X49824940Y-22510000D01*
X49824940Y-21704955D01*
X54356471Y-22606333D01*
X62237639Y-27872361D01*
X67503667Y-35753529D01*
X69352850Y-45050000D01*
X67503667Y-54346471D01*
X62237639Y-62227639D01*
X54356471Y-67493667D01*
X45060000Y-69342850D01*
X35763529Y-67493667D01*
X27882361Y-62227639D01*
X22616333Y-54346471D01*
X20767150Y-45050000D01*
X22616333Y-35753529D01*
X26124457Y-30503250D01*
X38095000Y-30503250D01*
X38095000Y-30966309D01*
X38191673Y-31199698D01*
X38370301Y-31378327D01*
X38603690Y-31475000D01*
X39344250Y-31475000D01*
X39503000Y-31316250D01*
X39503000Y-30344500D01*
X38253750Y-30344500D01*
X38095000Y-30503250D01*
X26124457Y-30503250D01*
X26815727Y-29468691D01*
X38095000Y-29468691D01*
X38095000Y-29931750D01*
X38253750Y-30090500D01*
X39503000Y-30090500D01*
X39503000Y-29118750D01*
X39344250Y-28960000D01*
X38603690Y-28960000D01*
X38370301Y-29056673D01*
X38191673Y-29235302D01*
X38095000Y-29468691D01*
X26815727Y-29468691D01*
X27882361Y-27872361D01*
X35763529Y-22606333D01*
X40335060Y-21696999D01*
X40335060Y-22510000D01*
G36*
X50728001Y-40735632D02*
X50728000Y-49314369D01*
X49714370Y-50328000D01*
X45795631Y-50328000D01*
X45742000Y-50274370D01*
X45742000Y-47636842D01*
X46050625Y-47430625D01*
X46263843Y-47111522D01*
X46324817Y-47241358D01*
X46753076Y-47631645D01*
X47163110Y-47801476D01*
X47393000Y-47680155D01*
X47393000Y-46487000D01*
X47647000Y-46487000D01*
X47647000Y-47680155D01*
X47876890Y-47801476D01*
X48286924Y-47631645D01*
X48715183Y-47241358D01*
X48961486Y-46716892D01*
X48840819Y-46487000D01*
X47647000Y-46487000D01*
X47393000Y-46487000D01*
X47373000Y-46487000D01*
X47373000Y-46233000D01*
X47393000Y-46233000D01*
X47393000Y-46213000D01*
X47647000Y-46213000D01*
X47647000Y-46233000D01*
X48840819Y-46233000D01*
X48961486Y-46003108D01*
X48715183Y-45478642D01*
X48508145Y-45289961D01*
X48617765Y-45268157D01*
X48827809Y-45127809D01*
X48968157Y-44917765D01*
X49017440Y-44670000D01*
X49017440Y-42970000D01*
X48968157Y-42722235D01*
X48827809Y-42512191D01*
X48617765Y-42371843D01*
X48370000Y-42322560D01*
X47620191Y-42322560D01*
X47617492Y-42319862D01*
X47732809Y-42242809D01*
X47873157Y-42032765D01*
X47922440Y-41785000D01*
X47922440Y-40665190D01*
X48355749Y-40231882D01*
X48370538Y-40222000D01*
X50214370Y-40222000D01*
X50728001Y-40735632D01*
X50728001Y-40735632D01*
G37*
X50728001Y-40735632D02*
X50728000Y-49314369D01*
X49714370Y-50328000D01*
X45795631Y-50328000D01*
X45742000Y-50274370D01*
X45742000Y-47636842D01*
X46050625Y-47430625D01*
X46263843Y-47111522D01*
X46324817Y-47241358D01*
X46753076Y-47631645D01*
X47163110Y-47801476D01*
X47393000Y-47680155D01*
X47393000Y-46487000D01*
X47647000Y-46487000D01*
X47647000Y-47680155D01*
X47876890Y-47801476D01*
X48286924Y-47631645D01*
X48715183Y-47241358D01*
X48961486Y-46716892D01*
X48840819Y-46487000D01*
X47647000Y-46487000D01*
X47393000Y-46487000D01*
X47373000Y-46487000D01*
X47373000Y-46233000D01*
X47393000Y-46233000D01*
X47393000Y-46213000D01*
X47647000Y-46213000D01*
X47647000Y-46233000D01*
X48840819Y-46233000D01*
X48961486Y-46003108D01*
X48715183Y-45478642D01*
X48508145Y-45289961D01*
X48617765Y-45268157D01*
X48827809Y-45127809D01*
X48968157Y-44917765D01*
X49017440Y-44670000D01*
X49017440Y-42970000D01*
X48968157Y-42722235D01*
X48827809Y-42512191D01*
X48617765Y-42371843D01*
X48370000Y-42322560D01*
X47620191Y-42322560D01*
X47617492Y-42319862D01*
X47732809Y-42242809D01*
X47873157Y-42032765D01*
X47922440Y-41785000D01*
X47922440Y-40665190D01*
X48355749Y-40231882D01*
X48370538Y-40222000D01*
X50214370Y-40222000D01*
X50728001Y-40735632D01*
M02*
