G04 #@! TF.GenerationSoftware,KiCad,Pcbnew,5.0-dev-unknown-bc6763e~61~ubuntu16.04.1*
G04 #@! TF.CreationDate,2018-02-24T23:45:45-08:00*
G04 #@! TF.ProjectId,16-Tiny-Pixels-BeforePanel,31362D54696E792D506978656C732D42,rev?*
G04 #@! TF.SameCoordinates,Original*
G04 #@! TF.FileFunction,Copper,L1,Top,Signal*
G04 #@! TF.FilePolarity,Positive*
%FSLAX46Y46*%
G04 Gerber Fmt 4.6, Leading zero omitted, Abs format (unit mm)*
G04 Created by KiCad (PCBNEW 5.0-dev-unknown-bc6763e~61~ubuntu16.04.1) date Sat Feb 24 23:45:45 2018*
%MOMM*%
%LPD*%
G01*
G04 APERTURE LIST*
%ADD10C,1.245000*%
%ADD11C,0.150000*%
%ADD12O,1.700000X1.700000*%
%ADD13R,1.700000X1.700000*%
%ADD14R,1.800000X1.245000*%
%ADD15C,1.000000*%
%ADD16R,1.600000X1.000000*%
%ADD17R,1.000000X1.600000*%
%ADD18C,0.889000*%
%ADD19C,0.512000*%
%ADD20C,0.254000*%
G04 APERTURE END LIST*
D10*
X49545333Y-24856460D03*
D11*
G36*
X48912517Y-23963683D02*
X50603964Y-24579319D01*
X50178149Y-25749237D01*
X48486702Y-25133601D01*
X48912517Y-23963683D01*
X48912517Y-23963683D01*
G37*
D10*
X50634667Y-21863540D03*
D11*
G36*
X50001851Y-20970763D02*
X51693298Y-21586399D01*
X51267483Y-22756317D01*
X49576036Y-22140681D01*
X50001851Y-20970763D01*
X50001851Y-20970763D01*
G37*
D10*
X56670961Y-28056070D03*
D11*
G36*
X56290775Y-27029929D02*
X57765249Y-28062367D01*
X57051147Y-29082211D01*
X55576673Y-28049773D01*
X56290775Y-27029929D01*
X56290775Y-27029929D01*
G37*
D10*
X58497801Y-25447070D03*
D11*
G36*
X58117615Y-24420929D02*
X59592089Y-25453367D01*
X58877987Y-26473211D01*
X57403513Y-25440773D01*
X58117615Y-24420929D01*
X58117615Y-24420929D01*
G37*
D10*
X62095500Y-33603420D03*
D11*
G36*
X62089203Y-32509132D02*
X63121641Y-33983606D01*
X62101797Y-34697708D01*
X61069359Y-33223234D01*
X62089203Y-32509132D01*
X62089203Y-32509132D01*
G37*
D10*
X64704500Y-31776580D03*
D11*
G36*
X64698203Y-30682292D02*
X65730641Y-32156766D01*
X64710797Y-32870868D01*
X63678359Y-31396394D01*
X64698203Y-30682292D01*
X64698203Y-30682292D01*
G37*
D10*
X64861763Y-41122169D03*
D11*
G36*
X65230115Y-40091721D02*
X65695989Y-41830387D01*
X64493411Y-42152617D01*
X64027537Y-40413951D01*
X65230115Y-40091721D01*
X65230115Y-40091721D01*
G37*
D10*
X67938237Y-40297831D03*
D11*
G36*
X68306589Y-39267383D02*
X68772463Y-41006049D01*
X67569885Y-41328279D01*
X67104011Y-39589613D01*
X68306589Y-39267383D01*
X68306589Y-39267383D01*
G37*
D10*
X64981694Y-48853465D03*
D11*
G36*
X65751020Y-48075234D02*
X65438453Y-49847888D01*
X64212368Y-49631696D01*
X64524935Y-47859042D01*
X65751020Y-48075234D01*
X65751020Y-48075234D01*
G37*
D10*
X68118306Y-49406535D03*
D11*
G36*
X68887632Y-48628304D02*
X68575065Y-50400958D01*
X67348980Y-50184766D01*
X67661547Y-48412112D01*
X68887632Y-48628304D01*
X68887632Y-48628304D01*
G37*
D10*
X62300074Y-56172722D03*
D11*
G36*
X63355446Y-55883417D02*
X62198428Y-57262297D01*
X61244702Y-56462027D01*
X62401720Y-55083147D01*
X63355446Y-55883417D01*
X63355446Y-55883417D01*
G37*
D10*
X64739926Y-58220000D03*
D11*
G36*
X65795298Y-57930695D02*
X64638280Y-59309575D01*
X63684554Y-58509305D01*
X64841572Y-57130425D01*
X65795298Y-57930695D01*
X65795298Y-57930695D01*
G37*
D10*
X56433952Y-62071640D03*
D11*
G36*
X57527964Y-62046246D02*
X56071733Y-63104260D01*
X55339940Y-62097034D01*
X56796171Y-61039020D01*
X57527964Y-62046246D01*
X57527964Y-62046246D01*
G37*
D10*
X58306048Y-64648360D03*
D11*
G36*
X59400060Y-64622966D02*
X57943829Y-65680980D01*
X57212036Y-64673754D01*
X58668267Y-63615740D01*
X59400060Y-64622966D01*
X59400060Y-64622966D01*
G37*
D10*
X48953465Y-65121694D03*
D11*
G36*
X49947888Y-65578453D02*
X48175234Y-65891020D01*
X47959042Y-64664935D01*
X49731696Y-64352368D01*
X49947888Y-65578453D01*
X49947888Y-65578453D01*
G37*
D10*
X49506535Y-68258306D03*
D11*
G36*
X50500958Y-68715065D02*
X48728304Y-69027632D01*
X48512112Y-67801547D01*
X50284766Y-67488980D01*
X50500958Y-68715065D01*
X50500958Y-68715065D01*
G37*
D10*
X41196535Y-65161694D03*
D11*
G36*
X41974766Y-65931020D02*
X40202112Y-65618453D01*
X40418304Y-64392368D01*
X42190958Y-64704935D01*
X41974766Y-65931020D01*
X41974766Y-65931020D01*
G37*
D10*
X40643465Y-68298306D03*
D11*
G36*
X41421696Y-69067632D02*
X39649042Y-68755065D01*
X39865234Y-67528980D01*
X41637888Y-67841547D01*
X41421696Y-69067632D01*
X41421696Y-69067632D01*
G37*
D10*
X33692736Y-62301157D03*
D11*
G36*
X34072922Y-63327298D02*
X32598448Y-62294860D01*
X33312550Y-61275016D01*
X34787024Y-62307454D01*
X34072922Y-63327298D01*
X34072922Y-63327298D01*
G37*
D10*
X31865896Y-64910157D03*
D11*
G36*
X32246082Y-65936298D02*
X30771608Y-64903860D01*
X31485710Y-63884016D01*
X32960184Y-64916454D01*
X32246082Y-65936298D01*
X32246082Y-65936298D01*
G37*
D10*
X27815583Y-56532662D03*
D11*
G36*
X27783686Y-57626503D02*
X26803335Y-56116896D01*
X27847480Y-55438821D01*
X28827831Y-56948428D01*
X27783686Y-57626503D01*
X27783686Y-57626503D01*
G37*
D10*
X25144417Y-58267338D03*
D11*
G36*
X25112520Y-59361179D02*
X24132169Y-57851572D01*
X25176314Y-57173497D01*
X26156665Y-58683104D01*
X25112520Y-59361179D01*
X25112520Y-59361179D01*
G37*
D10*
X24740809Y-48961048D03*
D11*
G36*
X24390497Y-49997768D02*
X23894350Y-48267497D01*
X25091121Y-47924328D01*
X25587268Y-49654599D01*
X24390497Y-49997768D01*
X24390497Y-49997768D01*
G37*
D10*
X21679191Y-49838952D03*
D11*
G36*
X21328879Y-50875672D02*
X20832732Y-49145401D01*
X22029503Y-48802232D01*
X22525650Y-50532503D01*
X21328879Y-50875672D01*
X21328879Y-50875672D01*
G37*
D10*
X24687700Y-41041099D03*
D11*
G36*
X23891683Y-41792007D02*
X24265924Y-40031341D01*
X25483717Y-40290191D01*
X25109476Y-42050857D01*
X23891683Y-41792007D01*
X23891683Y-41792007D01*
G37*
D10*
X21572300Y-40378901D03*
D11*
G36*
X20776283Y-41129809D02*
X21150524Y-39369143D01*
X22368317Y-39627993D01*
X21994076Y-41388659D01*
X20776283Y-41129809D01*
X20776283Y-41129809D01*
G37*
D10*
X27842346Y-33708228D03*
D11*
G36*
X26830098Y-34123994D02*
X27810449Y-32614387D01*
X28854594Y-33292462D01*
X27874243Y-34802069D01*
X26830098Y-34123994D01*
X26830098Y-34123994D01*
G37*
D10*
X25171180Y-31973552D03*
D11*
G36*
X24158932Y-32389318D02*
X25139283Y-30879711D01*
X26183428Y-31557786D01*
X25203077Y-33067393D01*
X24158932Y-32389318D01*
X24158932Y-32389318D01*
G37*
D10*
X33566048Y-27628360D03*
D11*
G36*
X32472036Y-27653754D02*
X33928267Y-26595740D01*
X34660060Y-27602966D01*
X33203829Y-28660980D01*
X32472036Y-27653754D01*
X32472036Y-27653754D01*
G37*
D10*
X31693952Y-25051640D03*
D11*
G36*
X30599940Y-25077034D02*
X32056171Y-24019020D01*
X32787964Y-25026246D01*
X31331733Y-26084260D01*
X30599940Y-25077034D01*
X30599940Y-25077034D01*
G37*
D12*
X42440000Y-46360000D03*
X42440000Y-43820000D03*
X44980000Y-46360000D03*
X44980000Y-43820000D03*
X47520000Y-46360000D03*
D13*
X47520000Y-43820000D03*
D14*
X44950000Y-48657500D03*
X44950000Y-51842500D03*
D15*
X37495980Y-22573568D03*
D11*
G36*
X36723143Y-22032530D02*
X37643648Y-21641799D01*
X38268817Y-23114606D01*
X37348312Y-23505337D01*
X36723143Y-22032530D01*
X36723143Y-22032530D01*
G37*
D15*
X34550363Y-23823908D03*
D11*
G36*
X33777526Y-23282870D02*
X34698031Y-22892139D01*
X35323200Y-24364946D01*
X34402695Y-24755677D01*
X33777526Y-23282870D01*
X33777526Y-23282870D01*
G37*
D15*
X39449637Y-27176092D03*
D11*
G36*
X38676800Y-26635054D02*
X39597305Y-26244323D01*
X40222474Y-27717130D01*
X39301969Y-28107861D01*
X38676800Y-26635054D01*
X38676800Y-26635054D01*
G37*
D15*
X36504020Y-28426432D03*
D11*
G36*
X35731183Y-27885394D02*
X36651688Y-27494663D01*
X37276857Y-28967470D01*
X36356352Y-29358201D01*
X35731183Y-27885394D01*
X35731183Y-27885394D01*
G37*
D15*
X61573568Y-36504020D03*
D11*
G36*
X62114606Y-35731183D02*
X62505337Y-36651688D01*
X61032530Y-37276857D01*
X60641799Y-36356352D01*
X62114606Y-35731183D01*
X62114606Y-35731183D01*
G37*
D15*
X62823908Y-39449637D03*
D11*
G36*
X63364946Y-38676800D02*
X63755677Y-39597305D01*
X62282870Y-40222474D01*
X61892139Y-39301969D01*
X63364946Y-38676800D01*
X63364946Y-38676800D01*
G37*
D15*
X66176092Y-34550363D03*
D11*
G36*
X66717130Y-33777526D02*
X67107861Y-34698031D01*
X65635054Y-35323200D01*
X65244323Y-34402695D01*
X66717130Y-33777526D01*
X66717130Y-33777526D01*
G37*
D15*
X67426432Y-37495980D03*
D11*
G36*
X67967470Y-36723143D02*
X68358201Y-37643648D01*
X66885394Y-38268817D01*
X66494663Y-37348312D01*
X67967470Y-36723143D01*
X67967470Y-36723143D01*
G37*
D15*
X53495980Y-61573568D03*
D11*
G36*
X54268817Y-62114606D02*
X53348312Y-62505337D01*
X52723143Y-61032530D01*
X53643648Y-60641799D01*
X54268817Y-62114606D01*
X54268817Y-62114606D01*
G37*
D15*
X50550363Y-62823908D03*
D11*
G36*
X51323200Y-63364946D02*
X50402695Y-63755677D01*
X49777526Y-62282870D01*
X50698031Y-61892139D01*
X51323200Y-63364946D01*
X51323200Y-63364946D01*
G37*
D15*
X55449637Y-66176092D03*
D11*
G36*
X56222474Y-66717130D02*
X55301969Y-67107861D01*
X54676800Y-65635054D01*
X55597305Y-65244323D01*
X56222474Y-66717130D01*
X56222474Y-66717130D01*
G37*
D15*
X52504020Y-67426432D03*
D11*
G36*
X53276857Y-67967470D02*
X52356352Y-68358201D01*
X51731183Y-66885394D01*
X52651688Y-66494663D01*
X53276857Y-67967470D01*
X53276857Y-67967470D01*
G37*
D15*
X28426432Y-53495980D03*
D11*
G36*
X27885394Y-54268817D02*
X27494663Y-53348312D01*
X28967470Y-52723143D01*
X29358201Y-53643648D01*
X27885394Y-54268817D01*
X27885394Y-54268817D01*
G37*
D15*
X27176092Y-50550363D03*
D11*
G36*
X26635054Y-51323200D02*
X26244323Y-50402695D01*
X27717130Y-49777526D01*
X28107861Y-50698031D01*
X26635054Y-51323200D01*
X26635054Y-51323200D01*
G37*
D15*
X23823908Y-55449637D03*
D11*
G36*
X23282870Y-56222474D02*
X22892139Y-55301969D01*
X24364946Y-54676800D01*
X24755677Y-55597305D01*
X23282870Y-56222474D01*
X23282870Y-56222474D01*
G37*
D15*
X22573568Y-52504020D03*
D11*
G36*
X22032530Y-53276857D02*
X21641799Y-52356352D01*
X23114606Y-51731183D01*
X23505337Y-52651688D01*
X22032530Y-53276857D01*
X22032530Y-53276857D01*
G37*
D15*
X29563604Y-27200862D03*
D11*
G36*
X28644365Y-26988730D02*
X29351472Y-26281623D01*
X30482843Y-27412994D01*
X29775736Y-28120101D01*
X28644365Y-26988730D01*
X28644365Y-26988730D01*
G37*
D15*
X27300862Y-29463604D03*
D11*
G36*
X26381623Y-29251472D02*
X27088730Y-28544365D01*
X28220101Y-29675736D01*
X27512994Y-30382843D01*
X26381623Y-29251472D01*
X26381623Y-29251472D01*
G37*
D15*
X33099138Y-30736396D03*
D11*
G36*
X32179899Y-30524264D02*
X32887006Y-29817157D01*
X34018377Y-30948528D01*
X33311270Y-31655635D01*
X32179899Y-30524264D01*
X32179899Y-30524264D01*
G37*
D15*
X30836396Y-32999138D03*
D11*
G36*
X29917157Y-32787006D02*
X30624264Y-32079899D01*
X31755635Y-33211270D01*
X31048528Y-33918377D01*
X29917157Y-32787006D01*
X29917157Y-32787006D01*
G37*
D15*
X62899138Y-29563604D03*
D11*
G36*
X63111270Y-28644365D02*
X63818377Y-29351472D01*
X62687006Y-30482843D01*
X61979899Y-29775736D01*
X63111270Y-28644365D01*
X63111270Y-28644365D01*
G37*
D15*
X60636396Y-27300862D03*
D11*
G36*
X60848528Y-26381623D02*
X61555635Y-27088730D01*
X60424264Y-28220101D01*
X59717157Y-27512994D01*
X60848528Y-26381623D01*
X60848528Y-26381623D01*
G37*
D15*
X59363604Y-33099138D03*
D11*
G36*
X59575736Y-32179899D02*
X60282843Y-32887006D01*
X59151472Y-34018377D01*
X58444365Y-33311270D01*
X59575736Y-32179899D01*
X59575736Y-32179899D01*
G37*
D15*
X57100862Y-30836396D03*
D11*
G36*
X57312994Y-29917157D02*
X58020101Y-30624264D01*
X56888730Y-31755635D01*
X56181623Y-31048528D01*
X57312994Y-29917157D01*
X57312994Y-29917157D01*
G37*
D15*
X60636396Y-62899138D03*
D11*
G36*
X61555635Y-63111270D02*
X60848528Y-63818377D01*
X59717157Y-62687006D01*
X60424264Y-61979899D01*
X61555635Y-63111270D01*
X61555635Y-63111270D01*
G37*
D15*
X62899138Y-60636396D03*
D11*
G36*
X63818377Y-60848528D02*
X63111270Y-61555635D01*
X61979899Y-60424264D01*
X62687006Y-59717157D01*
X63818377Y-60848528D01*
X63818377Y-60848528D01*
G37*
D15*
X57100862Y-59363604D03*
D11*
G36*
X58020101Y-59575736D02*
X57312994Y-60282843D01*
X56181623Y-59151472D01*
X56888730Y-58444365D01*
X58020101Y-59575736D01*
X58020101Y-59575736D01*
G37*
D15*
X59363604Y-57100862D03*
D11*
G36*
X60282843Y-57312994D02*
X59575736Y-58020101D01*
X58444365Y-56888730D01*
X59151472Y-56181623D01*
X60282843Y-57312994D01*
X60282843Y-57312994D01*
G37*
D15*
X32899138Y-59363604D03*
D11*
G36*
X32687006Y-60282843D02*
X31979899Y-59575736D01*
X33111270Y-58444365D01*
X33818377Y-59151472D01*
X32687006Y-60282843D01*
X32687006Y-60282843D01*
G37*
D15*
X30636396Y-57100862D03*
D11*
G36*
X30424264Y-58020101D02*
X29717157Y-57312994D01*
X30848528Y-56181623D01*
X31555635Y-56888730D01*
X30424264Y-58020101D01*
X30424264Y-58020101D01*
G37*
D15*
X29363604Y-62899138D03*
D11*
G36*
X29151472Y-63818377D02*
X28444365Y-63111270D01*
X29575736Y-61979899D01*
X30282843Y-62687006D01*
X29151472Y-63818377D01*
X29151472Y-63818377D01*
G37*
D15*
X27100862Y-60636396D03*
D11*
G36*
X26888730Y-61555635D02*
X26181623Y-60848528D01*
X27312994Y-59717157D01*
X28020101Y-60424264D01*
X26888730Y-61555635D01*
X26888730Y-61555635D01*
G37*
D15*
X27218589Y-39420011D03*
D11*
G36*
X26289539Y-39583918D02*
X26664145Y-38656734D01*
X28147639Y-39256104D01*
X27773033Y-40183288D01*
X26289539Y-39583918D01*
X26289539Y-39583918D01*
G37*
D15*
X28417330Y-36453022D03*
D11*
G36*
X27488280Y-36616929D02*
X27862886Y-35689745D01*
X29346380Y-36289115D01*
X28971774Y-37216299D01*
X27488280Y-36616929D01*
X27488280Y-36616929D01*
G37*
D15*
X22582670Y-37546978D03*
D11*
G36*
X21653620Y-37710885D02*
X22028226Y-36783701D01*
X23511720Y-37383071D01*
X23137114Y-38310255D01*
X21653620Y-37710885D01*
X21653620Y-37710885D01*
G37*
D15*
X23781411Y-34579989D03*
D11*
G36*
X22852361Y-34743896D02*
X23226967Y-33816712D01*
X24710461Y-34416082D01*
X24335855Y-35343266D01*
X22852361Y-34743896D01*
X22852361Y-34743896D01*
G37*
D15*
X50979989Y-27318589D03*
D11*
G36*
X50816082Y-26389539D02*
X51743266Y-26764145D01*
X51143896Y-28247639D01*
X50216712Y-27873033D01*
X50816082Y-26389539D01*
X50816082Y-26389539D01*
G37*
D15*
X53946978Y-28517330D03*
D11*
G36*
X53783071Y-27588280D02*
X54710255Y-27962886D01*
X54110885Y-29446380D01*
X53183701Y-29071774D01*
X53783071Y-27588280D01*
X53783071Y-27588280D01*
G37*
D15*
X52853022Y-22682670D03*
D11*
G36*
X52689115Y-21753620D02*
X53616299Y-22128226D01*
X53016929Y-23611720D01*
X52089745Y-23237114D01*
X52689115Y-21753620D01*
X52689115Y-21753620D01*
G37*
D15*
X55820011Y-23881411D03*
D11*
G36*
X55656104Y-22952361D02*
X56583288Y-23326967D01*
X55983918Y-24810461D01*
X55056734Y-24435855D01*
X55656104Y-22952361D01*
X55656104Y-22952361D01*
G37*
D15*
X62781411Y-50579989D03*
D11*
G36*
X63710461Y-50416082D02*
X63335855Y-51343266D01*
X61852361Y-50743896D01*
X62226967Y-49816712D01*
X63710461Y-50416082D01*
X63710461Y-50416082D01*
G37*
D15*
X61582670Y-53546978D03*
D11*
G36*
X62511720Y-53383071D02*
X62137114Y-54310255D01*
X60653620Y-53710885D01*
X61028226Y-52783701D01*
X62511720Y-53383071D01*
X62511720Y-53383071D01*
G37*
D15*
X67417330Y-52453022D03*
D11*
G36*
X68346380Y-52289115D02*
X67971774Y-53216299D01*
X66488280Y-52616929D01*
X66862886Y-51689745D01*
X68346380Y-52289115D01*
X68346380Y-52289115D01*
G37*
D15*
X66218589Y-55420011D03*
D11*
G36*
X67147639Y-55256104D02*
X66773033Y-56183288D01*
X65289539Y-55583918D01*
X65664145Y-54656734D01*
X67147639Y-55256104D01*
X67147639Y-55256104D01*
G37*
D15*
X34579989Y-66218589D03*
D11*
G36*
X34743896Y-67147639D02*
X33816712Y-66773033D01*
X34416082Y-65289539D01*
X35343266Y-65664145D01*
X34743896Y-67147639D01*
X34743896Y-67147639D01*
G37*
D15*
X37546978Y-67417330D03*
D11*
G36*
X37710885Y-68346380D02*
X36783701Y-67971774D01*
X37383071Y-66488280D01*
X38310255Y-66862886D01*
X37710885Y-68346380D01*
X37710885Y-68346380D01*
G37*
D15*
X36453022Y-61582670D03*
D11*
G36*
X36616929Y-62511720D02*
X35689745Y-62137114D01*
X36289115Y-60653620D01*
X37216299Y-61028226D01*
X36616929Y-62511720D01*
X36616929Y-62511720D01*
G37*
D15*
X39420011Y-62781411D03*
D11*
G36*
X39583918Y-63710461D02*
X38656734Y-63335855D01*
X39256104Y-61852361D01*
X40183288Y-62226967D01*
X39583918Y-63710461D01*
X39583918Y-63710461D01*
G37*
D16*
X21500000Y-43400000D03*
X21500000Y-46600000D03*
X26500000Y-43400000D03*
X26500000Y-46600000D03*
D17*
X46600000Y-21500000D03*
X43400000Y-21500000D03*
X46600000Y-26500000D03*
X43400000Y-26500000D03*
D16*
X68500000Y-46600000D03*
X68500000Y-43400000D03*
X63500000Y-46600000D03*
X63500000Y-43400000D03*
D17*
X46600000Y-63500000D03*
X43400000Y-63500000D03*
X46600000Y-68500000D03*
X43400000Y-68500000D03*
D10*
X39620000Y-21950000D03*
D11*
G36*
X38548316Y-21728644D02*
X40205224Y-21025328D01*
X40691684Y-22171356D01*
X39034776Y-22874672D01*
X38548316Y-21728644D01*
X38548316Y-21728644D01*
G37*
D10*
X40864478Y-24881808D03*
D11*
G36*
X39792794Y-24660452D02*
X41449702Y-23957136D01*
X41936162Y-25103164D01*
X40279254Y-25806480D01*
X39792794Y-24660452D01*
X39792794Y-24660452D01*
G37*
D18*
X40770000Y-35870000D03*
X49430000Y-35870000D03*
X42310000Y-49340000D03*
X47400000Y-49340000D03*
X54490000Y-23300000D03*
X50613306Y-22584636D03*
X36210000Y-23250000D03*
X28440000Y-28220000D03*
X23150000Y-35830000D03*
X21470000Y-44570000D03*
X23170000Y-53730000D03*
X28100000Y-61440000D03*
X35830000Y-66770000D03*
X44709283Y-68530717D03*
X53780000Y-66710000D03*
X61560000Y-61886159D03*
X66670000Y-53880000D03*
X68600717Y-45220717D03*
X66990000Y-35990000D03*
X61750000Y-28470000D03*
D19*
X46530000Y-50210000D02*
X43180000Y-50210000D01*
X43180000Y-50210000D02*
X42310000Y-49340000D01*
X47400000Y-49340000D02*
X46530000Y-50210000D01*
X55820011Y-23881411D02*
X55071411Y-23881411D01*
X55071411Y-23881411D02*
X54490000Y-23300000D01*
X50634667Y-21863540D02*
X50634667Y-22563275D01*
X50634667Y-22563275D02*
X50613306Y-22584636D01*
X37495980Y-22573568D02*
X36886432Y-22573568D01*
X36886432Y-22573568D02*
X36210000Y-23250000D01*
X29563604Y-27200862D02*
X29459138Y-27200862D01*
X29459138Y-27200862D02*
X28440000Y-28220000D01*
X23781411Y-34579989D02*
X23781411Y-35198589D01*
X23781411Y-35198589D02*
X23150000Y-35830000D01*
X21500000Y-43400000D02*
X21500000Y-44540000D01*
X21500000Y-44540000D02*
X21470000Y-44570000D01*
X22573568Y-52504020D02*
X22573568Y-53133568D01*
X22573568Y-53133568D02*
X23170000Y-53730000D01*
X27100862Y-60636396D02*
X27296396Y-60636396D01*
X27296396Y-60636396D02*
X28100000Y-61440000D01*
X34579989Y-66218589D02*
X35278589Y-66218589D01*
X35278589Y-66218589D02*
X35830000Y-66770000D01*
X43400000Y-68500000D02*
X44678566Y-68500000D01*
X44678566Y-68500000D02*
X44709283Y-68530717D01*
X52504020Y-67426432D02*
X53063568Y-67426432D01*
X53063568Y-67426432D02*
X53780000Y-66710000D01*
X60636396Y-62899138D02*
X60636396Y-62809763D01*
X60636396Y-62809763D02*
X61560000Y-61886159D01*
X66218589Y-55420011D02*
X66218589Y-54331411D01*
X66218589Y-54331411D02*
X66670000Y-53880000D01*
X68500000Y-46600000D02*
X68500000Y-45321434D01*
X68500000Y-45321434D02*
X68600717Y-45220717D01*
X67426432Y-37495980D02*
X67426432Y-36426432D01*
X67426432Y-36426432D02*
X66990000Y-35990000D01*
X62899138Y-29563604D02*
X62843604Y-29563604D01*
X62843604Y-29563604D02*
X61750000Y-28470000D01*
X37495980Y-22573568D02*
X38996432Y-22573568D01*
X38996432Y-22573568D02*
X39620000Y-21950000D01*
X62899138Y-29563604D02*
X62899138Y-29971218D01*
X62899138Y-29971218D02*
X64704500Y-31776580D01*
X55820011Y-23881411D02*
X56932142Y-23881411D01*
X56932142Y-23881411D02*
X58497801Y-25447070D01*
X46600000Y-21500000D02*
X47822990Y-22722990D01*
X47822990Y-22722990D02*
X49775217Y-22722990D01*
X50038279Y-22459928D02*
X50594667Y-21903540D01*
X49775217Y-22722990D02*
X50038279Y-22459928D01*
X29563604Y-27200862D02*
X29563604Y-27181988D01*
X29563604Y-27181988D02*
X31693952Y-25051640D01*
X23781411Y-34579989D02*
X23781411Y-33363321D01*
X23781411Y-33363321D02*
X25171180Y-31973552D01*
X21572300Y-40378901D02*
X21572300Y-43327700D01*
X21572300Y-43327700D02*
X21500000Y-43400000D01*
X21679191Y-49838952D02*
X21679191Y-50875221D01*
X21679191Y-50875221D02*
X22573568Y-51769598D01*
X22573568Y-51769598D02*
X22573568Y-52504020D01*
X25144417Y-58267338D02*
X25144417Y-58679951D01*
X25144417Y-58679951D02*
X27100862Y-60636396D01*
X31865896Y-64910157D02*
X32695739Y-65740000D01*
X32695739Y-65740000D02*
X34101400Y-65740000D01*
X34101400Y-65740000D02*
X34579989Y-66218589D01*
X43400000Y-68500000D02*
X40845159Y-68500000D01*
X40845159Y-68500000D02*
X40643465Y-68298306D01*
X52504020Y-67426432D02*
X50338409Y-67426432D01*
X50338409Y-67426432D02*
X49506535Y-68258306D01*
X60636396Y-62899138D02*
X60055270Y-62899138D01*
X60055270Y-62899138D02*
X58306048Y-64648360D01*
X66218589Y-55420011D02*
X66218589Y-56741337D01*
X66218589Y-56741337D02*
X64739926Y-58220000D01*
X67426432Y-37495980D02*
X67426432Y-39786026D01*
X67426432Y-39786026D02*
X67938237Y-40297831D01*
X68500000Y-46600000D02*
X68500000Y-49024841D01*
X68500000Y-49024841D02*
X68118306Y-49406535D01*
D20*
X44980000Y-46360000D02*
X44980000Y-48627500D01*
X44980000Y-48627500D02*
X44950000Y-48657500D01*
X38360000Y-24640000D02*
X39130000Y-23870000D01*
X36009636Y-24640000D02*
X38360000Y-24640000D01*
X43470000Y-23070000D02*
X46600000Y-26200000D01*
X35193544Y-23823908D02*
X36009636Y-24640000D01*
X46600000Y-26200000D02*
X46600000Y-26500000D01*
X34550364Y-23823908D02*
X35193544Y-23823908D01*
X39130000Y-23870000D02*
X40044416Y-23870000D01*
X40044416Y-23870000D02*
X40934416Y-22980000D01*
X40934416Y-22980000D02*
X43470000Y-22980000D01*
X43470000Y-22980000D02*
X43470000Y-23070000D01*
X33487208Y-25660000D02*
X37933544Y-25660000D01*
X37933544Y-25660000D02*
X39449636Y-27176092D01*
X29683604Y-29463604D02*
X33487208Y-25660000D01*
X27300862Y-29463604D02*
X29683604Y-29463604D01*
X66113653Y-40393653D02*
X66420000Y-40700000D01*
X66113653Y-35255983D02*
X66113653Y-40393653D01*
X66176092Y-35193544D02*
X66113653Y-35255983D01*
X66420000Y-40700000D02*
X66420000Y-44010000D01*
X66176092Y-34550364D02*
X66176092Y-35193544D01*
X66420000Y-44010000D02*
X63830000Y-46600000D01*
X63830000Y-46600000D02*
X63500000Y-46600000D01*
X60636396Y-27300862D02*
X60636396Y-29976396D01*
X63504729Y-32844729D02*
X63504729Y-38768815D01*
X60636396Y-29976396D02*
X63504729Y-32844729D01*
X63504729Y-38768815D02*
X62823908Y-39449636D01*
X50740000Y-66160000D02*
X50290000Y-66610000D01*
X51210000Y-66160000D02*
X50740000Y-66160000D01*
X53930364Y-65300000D02*
X52830000Y-65300000D01*
X51800000Y-65570000D02*
X51210000Y-66160000D01*
X49530000Y-66610000D02*
X49290000Y-66850000D01*
X50290000Y-66610000D02*
X49530000Y-66610000D01*
X49250000Y-66810000D02*
X46410000Y-66810000D01*
X52560000Y-65570000D02*
X51800000Y-65570000D01*
X55449636Y-66176092D02*
X54806456Y-66176092D01*
X54806456Y-66176092D02*
X53930364Y-65300000D01*
X52830000Y-65300000D02*
X52560000Y-65570000D01*
X49290000Y-66850000D02*
X49250000Y-66810000D01*
X46410000Y-66810000D02*
X43400000Y-63800000D01*
X43400000Y-63800000D02*
X43400000Y-63500000D01*
X56920000Y-63960000D02*
X51686456Y-63960000D01*
X51686456Y-63960000D02*
X50550364Y-62823908D01*
X59819341Y-61060659D02*
X56920000Y-63960000D01*
X60080000Y-61060659D02*
X59939341Y-61060659D01*
X62474875Y-61060659D02*
X60080000Y-61060659D01*
X60080000Y-61060659D02*
X59819341Y-61060659D01*
X62899138Y-60636396D02*
X62474875Y-61060659D01*
X26560000Y-57710000D02*
X26560000Y-57460000D01*
X28939341Y-60089341D02*
X26560000Y-57710000D01*
X28939341Y-62474875D02*
X28939341Y-60089341D01*
X29363604Y-62899138D02*
X28939341Y-62474875D01*
X25770000Y-56670000D02*
X25770000Y-51956456D01*
X26560000Y-57460000D02*
X25770000Y-56670000D01*
X25770000Y-51956456D02*
X27176092Y-50550364D01*
X26200000Y-33170000D02*
X28633604Y-30736396D01*
X28633604Y-30736396D02*
X33099138Y-30736396D01*
X26200000Y-34017953D02*
X26200000Y-33170000D01*
X22582670Y-37546978D02*
X23037466Y-37092182D01*
X23037466Y-37092182D02*
X23125771Y-37092182D01*
X23125771Y-37092182D02*
X26200000Y-34017953D01*
X56430000Y-25780000D02*
X59363604Y-28713604D01*
X59363604Y-28713604D02*
X59363604Y-33099138D01*
X54910000Y-25780000D02*
X56430000Y-25780000D01*
X53307818Y-24177818D02*
X54910000Y-25780000D01*
X52853022Y-22682670D02*
X53307818Y-23137466D01*
X53307818Y-23137466D02*
X53307818Y-24177818D01*
X64240000Y-56240000D02*
X61116396Y-59363604D01*
X61116396Y-59363604D02*
X57100862Y-59363604D01*
X64240000Y-54760000D02*
X64240000Y-56240000D01*
X66092182Y-52907818D02*
X64240000Y-54760000D01*
X67417330Y-52453022D02*
X66962534Y-52907818D01*
X66962534Y-52907818D02*
X66092182Y-52907818D01*
X30190000Y-61190000D02*
X30636396Y-60743604D01*
X30636396Y-60743604D02*
X30636396Y-57100862D01*
X31960000Y-62960000D02*
X30190000Y-61190000D01*
X31960000Y-63090000D02*
X31960000Y-62960000D01*
X32360000Y-63490000D02*
X31960000Y-63090000D01*
X32740000Y-63490000D02*
X32360000Y-63490000D01*
X33170000Y-63920000D02*
X32740000Y-63490000D01*
X33690000Y-63920000D02*
X33170000Y-63920000D01*
X34200000Y-64430000D02*
X33690000Y-63920000D01*
X35020000Y-64430000D02*
X34200000Y-64430000D01*
X37092182Y-66502182D02*
X35020000Y-64430000D01*
X37546978Y-67417330D02*
X37092182Y-66962534D01*
X37092182Y-66962534D02*
X37092182Y-66502182D01*
X23120000Y-40240000D02*
X26906978Y-36453022D01*
X26906978Y-36453022D02*
X28417330Y-36453022D01*
X23120000Y-44226000D02*
X23120000Y-40240000D01*
X21500000Y-46600000D02*
X21500000Y-45846000D01*
X21500000Y-45846000D02*
X23120000Y-44226000D01*
X50330000Y-23360000D02*
X53946978Y-26976978D01*
X53946978Y-26976978D02*
X53946978Y-28517330D01*
X46014000Y-23360000D02*
X50330000Y-23360000D01*
X43400000Y-21500000D02*
X44154000Y-21500000D01*
X44154000Y-21500000D02*
X46014000Y-23360000D01*
X66480000Y-49840000D02*
X62773022Y-53546978D01*
X62773022Y-53546978D02*
X61582670Y-53546978D01*
X66480000Y-49440000D02*
X66480000Y-49840000D01*
X66640000Y-49280000D02*
X66480000Y-49440000D01*
X66640000Y-46014000D02*
X66640000Y-49280000D01*
X68500000Y-43400000D02*
X68500000Y-44154000D01*
X68500000Y-44154000D02*
X66640000Y-46014000D01*
X39260000Y-66640000D02*
X36453022Y-63833022D01*
X36453022Y-63833022D02*
X36453022Y-61582670D01*
X40940000Y-66640000D02*
X39260000Y-66640000D01*
X41110000Y-66810000D02*
X40940000Y-66640000D01*
X44156000Y-66810000D02*
X41110000Y-66810000D01*
X46600000Y-68500000D02*
X45846000Y-68500000D01*
X45846000Y-68500000D02*
X44156000Y-66810000D01*
X44950000Y-51842500D02*
X34188500Y-51842500D01*
X34188500Y-51842500D02*
X26500000Y-44154000D01*
X26500000Y-44154000D02*
X26500000Y-43400000D01*
G36*
X45422117Y-23845748D02*
X45464629Y-23909371D01*
X45528251Y-23951882D01*
X45716681Y-24077787D01*
X45716682Y-24077787D01*
X45716683Y-24077788D01*
X45938952Y-24122000D01*
X45938956Y-24122000D01*
X46013999Y-24136927D01*
X46089042Y-24122000D01*
X48228176Y-24122000D01*
X48295518Y-24266414D01*
X49469429Y-24693682D01*
X49476269Y-24674889D01*
X49714952Y-24761762D01*
X49708111Y-24780556D01*
X50882022Y-25207824D01*
X51030812Y-25138442D01*
X53184978Y-27292609D01*
X53184978Y-27342384D01*
X53182775Y-27345745D01*
X52583405Y-28829239D01*
X52536286Y-29077424D01*
X52587729Y-29324749D01*
X52729905Y-29533561D01*
X52941166Y-29672070D01*
X53868350Y-30046676D01*
X54116535Y-30093795D01*
X54363860Y-30042352D01*
X54572672Y-29900177D01*
X54711181Y-29688915D01*
X54977820Y-29028958D01*
X56144776Y-29028958D01*
X56183761Y-29250053D01*
X56583459Y-29529925D01*
X56712115Y-29620010D01*
X56500352Y-29831774D01*
X56500352Y-30056280D01*
X57100862Y-30656791D01*
X57913504Y-29844148D01*
X57913504Y-29619642D01*
X57851321Y-29557458D01*
X57672692Y-29378830D01*
X57630795Y-29361476D01*
X57764460Y-29170583D01*
X57725475Y-28949487D01*
X56702149Y-28232947D01*
X56144776Y-29028958D01*
X54977820Y-29028958D01*
X55174122Y-28543096D01*
X55315918Y-28642383D01*
X55715616Y-28922254D01*
X55936712Y-28883269D01*
X56494084Y-28087258D01*
X55470759Y-27370718D01*
X55249663Y-27409703D01*
X55174708Y-27516750D01*
X55164051Y-27501099D01*
X54952790Y-27362590D01*
X54708978Y-27264084D01*
X54708978Y-27052020D01*
X54723905Y-26976977D01*
X54708978Y-26901934D01*
X54708978Y-26901930D01*
X54664766Y-26679661D01*
X54635789Y-26636293D01*
X54538860Y-26491229D01*
X54496349Y-26427607D01*
X54432728Y-26385097D01*
X54409972Y-26362341D01*
X54424251Y-26371882D01*
X54440356Y-26382643D01*
X54612683Y-26497788D01*
X54834952Y-26542000D01*
X54834953Y-26542000D01*
X54910000Y-26556928D01*
X54985047Y-26542000D01*
X55874835Y-26542000D01*
X55843062Y-26562242D01*
X55577462Y-26941557D01*
X55616447Y-27162653D01*
X56639773Y-27879193D01*
X56651244Y-27862810D01*
X56859310Y-28008499D01*
X56847838Y-28024882D01*
X57871163Y-28741422D01*
X58092259Y-28702437D01*
X58167439Y-28595069D01*
X58601604Y-29029235D01*
X58601604Y-30368803D01*
X58558428Y-30264566D01*
X58379800Y-30085937D01*
X58317616Y-30023754D01*
X58093110Y-30023754D01*
X57280467Y-30836396D01*
X57880978Y-31436906D01*
X58105484Y-31436906D01*
X58558428Y-30983963D01*
X58601604Y-30879725D01*
X58601605Y-32238412D01*
X57986556Y-32853461D01*
X57846208Y-33063505D01*
X57796925Y-33311270D01*
X57846208Y-33559035D01*
X57986556Y-33769079D01*
X58693663Y-34476186D01*
X58903707Y-34616534D01*
X59151472Y-34665817D01*
X59399237Y-34616534D01*
X59609281Y-34476186D01*
X60528117Y-33557350D01*
X60621645Y-33690922D01*
X60901517Y-34090620D01*
X61122612Y-34129605D01*
X61918623Y-33572232D01*
X61202083Y-32548906D01*
X60980987Y-32509921D01*
X60854003Y-32598837D01*
X60740652Y-32429197D01*
X60125604Y-31814149D01*
X60125604Y-30551544D01*
X60150647Y-30568277D01*
X61634615Y-32052246D01*
X61449133Y-32182122D01*
X61410148Y-32403218D01*
X62126688Y-33426543D01*
X62143071Y-33415071D01*
X62288760Y-33623137D01*
X62272377Y-33634608D01*
X62283849Y-33650991D01*
X62075783Y-33796680D01*
X62064312Y-33780297D01*
X61268301Y-34337669D01*
X61229316Y-34558765D01*
X61509187Y-34958463D01*
X61654084Y-35165396D01*
X61721371Y-35208262D01*
X61393122Y-35347596D01*
X61309021Y-35555754D01*
X61640849Y-36337493D01*
X61659260Y-36329678D01*
X61758505Y-36563486D01*
X61740095Y-36571301D01*
X62071923Y-37353040D01*
X62280082Y-37437142D01*
X62742730Y-37240759D01*
X62742730Y-38237561D01*
X61639164Y-38705997D01*
X61430352Y-38848172D01*
X61291843Y-39059434D01*
X61244724Y-39307619D01*
X61296167Y-39554944D01*
X61686898Y-40475449D01*
X61829073Y-40684261D01*
X62040335Y-40822770D01*
X62288520Y-40869889D01*
X62535845Y-40818446D01*
X63382253Y-40459168D01*
X63446865Y-40700306D01*
X63573154Y-41171621D01*
X63767582Y-41283874D01*
X64706220Y-41032366D01*
X64382891Y-39825684D01*
X64361054Y-39813076D01*
X64403092Y-39591655D01*
X64351649Y-39344330D01*
X64226041Y-39048416D01*
X64266729Y-38843863D01*
X64266729Y-38843859D01*
X64281656Y-38768816D01*
X64266729Y-38693773D01*
X64266729Y-34135609D01*
X64365581Y-34277896D01*
X65351653Y-37159809D01*
X65351654Y-39467243D01*
X65187770Y-39445667D01*
X64740489Y-39565515D01*
X64628236Y-39759944D01*
X64951566Y-40966626D01*
X64970884Y-40961450D01*
X65036625Y-41206796D01*
X65017306Y-41211972D01*
X65340635Y-42418654D01*
X65535064Y-42530908D01*
X65658001Y-42497967D01*
X65658001Y-43694368D01*
X63899810Y-45452560D01*
X62700000Y-45452560D01*
X62452235Y-45501843D01*
X62242191Y-45642191D01*
X62101843Y-45852235D01*
X62052560Y-46100000D01*
X62052560Y-47100000D01*
X62101843Y-47347765D01*
X62242191Y-47557809D01*
X62452235Y-47698157D01*
X62700000Y-47747440D01*
X63899817Y-47747440D01*
X63877648Y-47873166D01*
X63792918Y-48353694D01*
X63921690Y-48537598D01*
X64878677Y-48706341D01*
X65095607Y-47476070D01*
X64966835Y-47292165D01*
X64911169Y-47282350D01*
X64947440Y-47100000D01*
X64947440Y-46560190D01*
X66694853Y-44812777D01*
X66698540Y-44877830D01*
X66154253Y-45422117D01*
X66090629Y-45464629D01*
X65922212Y-45716684D01*
X65878000Y-45938953D01*
X65878000Y-45938957D01*
X65863073Y-46014000D01*
X65878000Y-46089043D01*
X65878000Y-47452828D01*
X65529653Y-47391405D01*
X65345748Y-47520177D01*
X65128818Y-48750448D01*
X65148514Y-48753921D01*
X65104407Y-49004062D01*
X65084711Y-49000589D01*
X64867781Y-50230860D01*
X64926974Y-50315396D01*
X63961668Y-51280701D01*
X63917154Y-51175833D01*
X62851588Y-50745316D01*
X62533454Y-51532727D01*
X62621175Y-51739387D01*
X63215091Y-51979344D01*
X63263448Y-51978922D01*
X62544387Y-52697983D01*
X61270761Y-52183405D01*
X61022576Y-52136286D01*
X60775251Y-52187729D01*
X60566439Y-52329905D01*
X60427930Y-52541166D01*
X60053324Y-53468350D01*
X60006205Y-53716535D01*
X60057648Y-53963860D01*
X60199823Y-54172672D01*
X60411085Y-54311181D01*
X61762417Y-54857154D01*
X61520450Y-55145519D01*
X61540017Y-55369171D01*
X62284420Y-55993800D01*
X63087423Y-55036819D01*
X63067856Y-54813167D01*
X62742509Y-54540169D01*
X62834855Y-54311606D01*
X62848065Y-54308978D01*
X62848070Y-54308978D01*
X63070339Y-54264766D01*
X63322393Y-54096349D01*
X63364905Y-54032725D01*
X65916795Y-51480835D01*
X65650570Y-52286445D01*
X65542811Y-52358447D01*
X65500300Y-52422069D01*
X63754253Y-54168117D01*
X63690629Y-54210629D01*
X63522212Y-54462684D01*
X63478000Y-54684953D01*
X63478000Y-54684957D01*
X63463073Y-54760000D01*
X63478000Y-54835044D01*
X63478000Y-55182939D01*
X63281998Y-55200087D01*
X62478996Y-56157068D01*
X62494317Y-56169924D01*
X62331048Y-56364499D01*
X62315728Y-56351644D01*
X61512725Y-57308625D01*
X61532292Y-57532277D01*
X61715969Y-57686400D01*
X60800766Y-58601604D01*
X59831198Y-58601604D01*
X59935434Y-58558428D01*
X60114063Y-58379800D01*
X60176246Y-58317616D01*
X60176246Y-58093110D01*
X59363604Y-57280467D01*
X58763094Y-57880978D01*
X58763094Y-58105484D01*
X59216037Y-58558428D01*
X59320274Y-58601604D01*
X57961587Y-58601604D01*
X57346539Y-57986556D01*
X57136495Y-57846208D01*
X56888730Y-57796925D01*
X56640965Y-57846208D01*
X56430921Y-57986556D01*
X55723814Y-58693663D01*
X55583466Y-58903707D01*
X55534183Y-59151472D01*
X55583466Y-59399237D01*
X55723814Y-59609281D01*
X56557749Y-60443216D01*
X56525114Y-60451051D01*
X56320741Y-60599537D01*
X55925989Y-60886341D01*
X55890868Y-61108084D01*
X56462048Y-61894246D01*
X57472713Y-61159955D01*
X57507833Y-60938213D01*
X57478197Y-60897422D01*
X57560759Y-60881000D01*
X57770803Y-60740652D01*
X58385851Y-60125604D01*
X60862155Y-60125604D01*
X60704502Y-60298659D01*
X59894383Y-60298659D01*
X59819340Y-60283732D01*
X59744297Y-60298659D01*
X59744293Y-60298659D01*
X59522024Y-60342871D01*
X59522023Y-60342872D01*
X59522022Y-60342872D01*
X59367251Y-60446287D01*
X59269970Y-60511288D01*
X59227459Y-60574910D01*
X58078585Y-61723785D01*
X57843753Y-61400566D01*
X57622010Y-61365446D01*
X56611346Y-62099736D01*
X56623102Y-62115917D01*
X56417611Y-62265214D01*
X56405856Y-62249034D01*
X55395191Y-62983325D01*
X55361190Y-63198000D01*
X52002087Y-63198000D01*
X51919990Y-63115903D01*
X51919172Y-63111971D01*
X51566057Y-62280082D01*
X52562858Y-62280082D01*
X52813145Y-62869720D01*
X52993325Y-63046782D01*
X53227549Y-63141416D01*
X53480158Y-63139211D01*
X53712695Y-63040505D01*
X53793645Y-63006144D01*
X53877746Y-62797985D01*
X53428699Y-61740095D01*
X52646960Y-62071923D01*
X52562858Y-62280082D01*
X51566057Y-62280082D01*
X51294003Y-61639164D01*
X51151828Y-61430352D01*
X50940566Y-61291843D01*
X50692381Y-61244724D01*
X50445056Y-61296167D01*
X49524551Y-61686898D01*
X49315739Y-61829073D01*
X49177230Y-62040335D01*
X49130111Y-62288520D01*
X49181554Y-62535845D01*
X49682597Y-63716229D01*
X49497039Y-63748948D01*
X49016511Y-63833678D01*
X48887740Y-64017583D01*
X49056482Y-64974570D01*
X50286753Y-64757640D01*
X50415525Y-64573735D01*
X50384643Y-64398592D01*
X50408345Y-64403092D01*
X50655670Y-64351649D01*
X50897727Y-64248902D01*
X51094574Y-64445749D01*
X51137085Y-64509371D01*
X51200707Y-64551882D01*
X51238191Y-64576928D01*
X51389139Y-64677788D01*
X51611408Y-64722000D01*
X51611409Y-64722000D01*
X51686456Y-64736928D01*
X51761503Y-64722000D01*
X52323475Y-64722000D01*
X52280629Y-64750629D01*
X52242295Y-64808000D01*
X51875042Y-64808000D01*
X51799999Y-64793073D01*
X51724956Y-64808000D01*
X51724952Y-64808000D01*
X51502683Y-64852212D01*
X51250629Y-65020629D01*
X51208118Y-65084251D01*
X50894370Y-65398000D01*
X50815042Y-65398000D01*
X50739999Y-65383073D01*
X50664956Y-65398000D01*
X50664952Y-65398000D01*
X50564392Y-65418003D01*
X50514765Y-65136553D01*
X50330860Y-65007781D01*
X49100589Y-65224711D01*
X49104062Y-65244407D01*
X48853921Y-65288514D01*
X48850448Y-65268818D01*
X47620177Y-65485748D01*
X47491405Y-65669653D01*
X47558118Y-66048000D01*
X46725631Y-66048000D01*
X44547440Y-63869810D01*
X44547440Y-63785750D01*
X45465000Y-63785750D01*
X45465000Y-64426309D01*
X45561673Y-64659698D01*
X45740301Y-64838327D01*
X45973690Y-64935000D01*
X46314250Y-64935000D01*
X46473000Y-64776250D01*
X46473000Y-63627000D01*
X46727000Y-63627000D01*
X46727000Y-64776250D01*
X46885750Y-64935000D01*
X47226310Y-64935000D01*
X47352639Y-64882673D01*
X47392165Y-65106835D01*
X47576070Y-65235607D01*
X48806341Y-65018677D01*
X48637598Y-64061690D01*
X48453694Y-63932918D01*
X47973166Y-64017648D01*
X47735000Y-64059643D01*
X47735000Y-63785750D01*
X47576250Y-63627000D01*
X46727000Y-63627000D01*
X46473000Y-63627000D01*
X45623750Y-63627000D01*
X45465000Y-63785750D01*
X44547440Y-63785750D01*
X44547440Y-62700000D01*
X44522316Y-62573691D01*
X45465000Y-62573691D01*
X45465000Y-63214250D01*
X45623750Y-63373000D01*
X46473000Y-63373000D01*
X46473000Y-62223750D01*
X46727000Y-62223750D01*
X46727000Y-63373000D01*
X47576250Y-63373000D01*
X47735000Y-63214250D01*
X47735000Y-62573691D01*
X47638327Y-62340302D01*
X47459699Y-62161673D01*
X47226310Y-62065000D01*
X46885750Y-62065000D01*
X46727000Y-62223750D01*
X46473000Y-62223750D01*
X46314250Y-62065000D01*
X45973690Y-62065000D01*
X45740301Y-62161673D01*
X45561673Y-62340302D01*
X45465000Y-62573691D01*
X44522316Y-62573691D01*
X44498157Y-62452235D01*
X44357809Y-62242191D01*
X44147765Y-62101843D01*
X43900000Y-62052560D01*
X42900000Y-62052560D01*
X42652235Y-62101843D01*
X42442191Y-62242191D01*
X42301843Y-62452235D01*
X42252560Y-62700000D01*
X42252560Y-64071001D01*
X42176834Y-64057648D01*
X41696306Y-63972918D01*
X41512402Y-64101690D01*
X41343659Y-65058677D01*
X42573930Y-65275607D01*
X42757835Y-65146835D01*
X42796619Y-64926877D01*
X42900000Y-64947440D01*
X43469810Y-64947440D01*
X45264467Y-66742097D01*
X45166106Y-66742476D01*
X44747883Y-66324253D01*
X44705371Y-66260629D01*
X44453317Y-66092212D01*
X44231048Y-66048000D01*
X44231043Y-66048000D01*
X44156000Y-66033073D01*
X44080957Y-66048000D01*
X42598936Y-66048000D01*
X42658595Y-65709653D01*
X42529823Y-65525748D01*
X41299552Y-65308818D01*
X41296079Y-65328514D01*
X41045938Y-65284407D01*
X41049411Y-65264711D01*
X39819140Y-65047781D01*
X39635235Y-65176553D01*
X39554826Y-65632577D01*
X39609235Y-65878000D01*
X39575631Y-65878000D01*
X37709935Y-64012304D01*
X39059672Y-64012304D01*
X39147393Y-64218964D01*
X39228931Y-64251907D01*
X39463155Y-64346540D01*
X39715764Y-64344335D01*
X39787334Y-64313955D01*
X39734475Y-64613735D01*
X39863247Y-64797640D01*
X41093518Y-65014570D01*
X41262260Y-64057583D01*
X41133489Y-63873678D01*
X40652961Y-63788948D01*
X40404180Y-63745081D01*
X40240103Y-63781456D01*
X40365321Y-63471532D01*
X40277599Y-63264873D01*
X39490188Y-62946738D01*
X39059672Y-64012304D01*
X37709935Y-64012304D01*
X37215022Y-63517392D01*
X37215022Y-63215091D01*
X38020656Y-63215091D01*
X38022860Y-63467700D01*
X38121566Y-63700237D01*
X38301746Y-63877300D01*
X38535970Y-63971933D01*
X38617508Y-64004876D01*
X38824167Y-63917154D01*
X39254684Y-62851588D01*
X38907295Y-62711234D01*
X39585338Y-62711234D01*
X40372749Y-63029368D01*
X40579409Y-62941647D01*
X40819366Y-62347731D01*
X40817162Y-62095122D01*
X40718456Y-61862585D01*
X40538276Y-61685522D01*
X40304052Y-61590889D01*
X40222514Y-61557946D01*
X40015855Y-61645668D01*
X39585338Y-62711234D01*
X38907295Y-62711234D01*
X38467273Y-62533454D01*
X38260613Y-62621175D01*
X38020656Y-63215091D01*
X37215022Y-63215091D01*
X37215022Y-62757615D01*
X37217225Y-62754255D01*
X37485080Y-62091290D01*
X38474701Y-62091290D01*
X38562423Y-62297949D01*
X39349834Y-62616084D01*
X39780350Y-61550518D01*
X39692629Y-61343858D01*
X39611091Y-61310915D01*
X39376867Y-61216282D01*
X39124258Y-61218487D01*
X38891721Y-61317194D01*
X38714659Y-61497374D01*
X38474701Y-62091290D01*
X37485080Y-62091290D01*
X37816595Y-61270761D01*
X37863714Y-61022576D01*
X37840666Y-60911767D01*
X52087065Y-60911767D01*
X52089269Y-61164376D01*
X52339556Y-61754014D01*
X52547714Y-61838115D01*
X53012444Y-61640849D01*
X53662507Y-61640849D01*
X54111555Y-62698739D01*
X54319713Y-62782841D01*
X54400664Y-62748480D01*
X54633201Y-62649774D01*
X54810263Y-62469593D01*
X54815786Y-62455923D01*
X55024151Y-62742714D01*
X55245894Y-62777834D01*
X56256558Y-62043544D01*
X55685378Y-61257381D01*
X55463635Y-61222261D01*
X55068883Y-61509065D01*
X54864510Y-61657551D01*
X54805513Y-61753825D01*
X54652404Y-61393122D01*
X54444246Y-61309021D01*
X53662507Y-61640849D01*
X53012444Y-61640849D01*
X53329453Y-61506287D01*
X52880405Y-60448397D01*
X52672247Y-60364295D01*
X52591296Y-60398656D01*
X52358759Y-60497362D01*
X52181697Y-60677543D01*
X52087065Y-60911767D01*
X37840666Y-60911767D01*
X37812271Y-60775251D01*
X37670095Y-60566439D01*
X37458834Y-60427930D01*
X37263849Y-60349151D01*
X53114214Y-60349151D01*
X53563261Y-61407041D01*
X54345000Y-61075213D01*
X54429102Y-60867054D01*
X54178815Y-60277416D01*
X53998635Y-60100354D01*
X53764411Y-60005720D01*
X53511802Y-60007925D01*
X53279265Y-60106631D01*
X53198315Y-60140992D01*
X53114214Y-60349151D01*
X37263849Y-60349151D01*
X36531650Y-60053324D01*
X36283465Y-60006205D01*
X36036140Y-60057648D01*
X35827328Y-60199823D01*
X35688819Y-60411085D01*
X35136864Y-61777222D01*
X35047779Y-61714844D01*
X34648081Y-61434973D01*
X34426985Y-61473958D01*
X33869613Y-62269969D01*
X34892938Y-62986509D01*
X35114034Y-62947524D01*
X35319696Y-62653808D01*
X35447210Y-62737410D01*
X35691022Y-62835916D01*
X35691022Y-63757979D01*
X35676095Y-63833022D01*
X35691022Y-63908065D01*
X35691022Y-63908069D01*
X35719657Y-64052027D01*
X35611883Y-63944253D01*
X35569371Y-63880629D01*
X35317317Y-63712212D01*
X35095048Y-63668000D01*
X35095043Y-63668000D01*
X35020000Y-63653073D01*
X34944957Y-63668000D01*
X34609551Y-63668000D01*
X34786235Y-63415670D01*
X34747250Y-63194574D01*
X33723924Y-62478034D01*
X33712453Y-62494417D01*
X33504387Y-62348728D01*
X33515859Y-62332345D01*
X32492534Y-61615805D01*
X32271438Y-61654790D01*
X32049451Y-61971820D01*
X31259803Y-61182173D01*
X31340995Y-61060660D01*
X31354183Y-61040923D01*
X31354183Y-61040922D01*
X31354184Y-61040921D01*
X31398396Y-60818652D01*
X31398396Y-60818648D01*
X31413323Y-60743605D01*
X31398396Y-60668562D01*
X31398396Y-60355852D01*
X32086496Y-60355852D01*
X32086496Y-60580358D01*
X32148679Y-60642542D01*
X32327308Y-60821170D01*
X32560697Y-60917843D01*
X32787455Y-60917842D01*
X32599237Y-61186644D01*
X32638222Y-61407740D01*
X33661548Y-62124280D01*
X34218921Y-61328269D01*
X34179936Y-61107174D01*
X33780238Y-60827302D01*
X33573304Y-60682406D01*
X33326674Y-60627730D01*
X33221621Y-60646254D01*
X33499648Y-60368226D01*
X33499648Y-60143720D01*
X32899138Y-59543209D01*
X32086496Y-60355852D01*
X31398396Y-60355852D01*
X31398396Y-59831198D01*
X31441572Y-59935434D01*
X31620200Y-60114063D01*
X31682384Y-60176246D01*
X31906890Y-60176246D01*
X32719533Y-59363604D01*
X33078743Y-59363604D01*
X33679254Y-59964114D01*
X33903760Y-59964114D01*
X34356704Y-59511171D01*
X34453376Y-59277782D01*
X34453377Y-59025163D01*
X34356704Y-58791774D01*
X34178076Y-58613145D01*
X34115892Y-58550962D01*
X33891386Y-58550962D01*
X33078743Y-59363604D01*
X32719533Y-59363604D01*
X32119022Y-58763094D01*
X31894516Y-58763094D01*
X31441572Y-59216037D01*
X31398396Y-59320274D01*
X31398396Y-58358982D01*
X32298628Y-58358982D01*
X32298628Y-58583488D01*
X32899138Y-59183999D01*
X33711780Y-58371356D01*
X33711780Y-58146850D01*
X33649597Y-58084666D01*
X33470968Y-57906038D01*
X33237579Y-57809365D01*
X32984960Y-57809366D01*
X32751571Y-57906038D01*
X32298628Y-58358982D01*
X31398396Y-58358982D01*
X31398396Y-57961587D01*
X32013444Y-57346539D01*
X32153792Y-57136495D01*
X32203075Y-56888730D01*
X32177951Y-56762421D01*
X57809365Y-56762421D01*
X57809366Y-57015040D01*
X57906038Y-57248429D01*
X58358982Y-57701372D01*
X58583488Y-57701372D01*
X59183999Y-57100862D01*
X59543209Y-57100862D01*
X60355852Y-57913504D01*
X60580358Y-57913504D01*
X60642542Y-57851321D01*
X60821170Y-57672692D01*
X60917843Y-57439303D01*
X60917842Y-57186684D01*
X60821170Y-56953295D01*
X60368226Y-56500352D01*
X60143720Y-56500352D01*
X59543209Y-57100862D01*
X59183999Y-57100862D01*
X58371356Y-56288220D01*
X58146850Y-56288220D01*
X58084666Y-56350403D01*
X57906038Y-56529032D01*
X57809365Y-56762421D01*
X32177951Y-56762421D01*
X32153792Y-56640965D01*
X32013444Y-56430921D01*
X31466631Y-55884108D01*
X58550962Y-55884108D01*
X58550962Y-56108614D01*
X59363604Y-56921257D01*
X59893318Y-56391542D01*
X60601110Y-56391542D01*
X60623128Y-56643200D01*
X60739774Y-56867275D01*
X61094498Y-57164924D01*
X61318150Y-57145357D01*
X62121152Y-56188376D01*
X61376749Y-55563747D01*
X61153097Y-55583314D01*
X60839454Y-55957098D01*
X60677074Y-56150616D01*
X60601110Y-56391542D01*
X59893318Y-56391542D01*
X59964114Y-56320746D01*
X59964114Y-56096240D01*
X59511171Y-55643296D01*
X59277782Y-55546624D01*
X59025163Y-55546623D01*
X58791774Y-55643296D01*
X58613145Y-55821924D01*
X58550962Y-55884108D01*
X31466631Y-55884108D01*
X31306337Y-55723814D01*
X31096293Y-55583466D01*
X30848528Y-55534183D01*
X30600763Y-55583466D01*
X30390719Y-55723814D01*
X29420061Y-56694472D01*
X29291594Y-56496650D01*
X29025842Y-56087429D01*
X28806241Y-56040751D01*
X27991263Y-56570004D01*
X28671654Y-57617713D01*
X28891254Y-57664391D01*
X29111202Y-57521555D01*
X29119000Y-57560759D01*
X29259348Y-57770803D01*
X29874397Y-58385852D01*
X29874396Y-60427974D01*
X29704253Y-60598117D01*
X29701341Y-60600063D01*
X29701341Y-60164383D01*
X29716268Y-60089340D01*
X29701341Y-60014297D01*
X29701341Y-60014293D01*
X29657129Y-59792024D01*
X29604862Y-59713800D01*
X29531223Y-59603592D01*
X29488712Y-59539970D01*
X29425090Y-59497459D01*
X28103557Y-58175927D01*
X28411954Y-57975652D01*
X28458631Y-57756052D01*
X27778241Y-56708342D01*
X27761468Y-56719235D01*
X27623129Y-56506213D01*
X27639903Y-56495320D01*
X26959512Y-55447611D01*
X26739912Y-55400933D01*
X26532000Y-55535953D01*
X26532000Y-55309272D01*
X27172535Y-55309272D01*
X27852925Y-56356982D01*
X28667903Y-55827729D01*
X28714581Y-55608128D01*
X28448829Y-55198907D01*
X28311243Y-54987042D01*
X28123118Y-54857748D01*
X28606878Y-54652404D01*
X28690979Y-54444246D01*
X28359151Y-53662507D01*
X27301261Y-54111555D01*
X27217159Y-54319713D01*
X27251520Y-54400664D01*
X27350226Y-54633201D01*
X27530407Y-54810263D01*
X27603802Y-54839916D01*
X27219212Y-55089672D01*
X27172535Y-55309272D01*
X26532000Y-55309272D01*
X26532000Y-53227549D01*
X26858584Y-53227549D01*
X26860789Y-53480158D01*
X26959495Y-53712695D01*
X26993856Y-53793645D01*
X27202015Y-53877746D01*
X27942896Y-53563261D01*
X28592959Y-53563261D01*
X28924787Y-54345000D01*
X29132946Y-54429102D01*
X29722584Y-54178815D01*
X29899646Y-53998635D01*
X29994280Y-53764411D01*
X29992075Y-53511802D01*
X29893369Y-53279265D01*
X29859008Y-53198315D01*
X29650849Y-53114214D01*
X28592959Y-53563261D01*
X27942896Y-53563261D01*
X28259905Y-53428699D01*
X27928077Y-52646960D01*
X27719918Y-52562858D01*
X27130280Y-52813145D01*
X26953218Y-52993325D01*
X26858584Y-53227549D01*
X26532000Y-53227549D01*
X26532000Y-52547714D01*
X28161885Y-52547714D01*
X28493713Y-53329453D01*
X29551603Y-52880405D01*
X29635705Y-52672247D01*
X29601344Y-52591296D01*
X29502638Y-52358759D01*
X29322457Y-52181697D01*
X29088233Y-52087065D01*
X28835624Y-52089269D01*
X28245986Y-52339556D01*
X28161885Y-52547714D01*
X26532000Y-52547714D01*
X26532000Y-52272086D01*
X26884096Y-51919990D01*
X26888029Y-51919172D01*
X28360836Y-51294003D01*
X28569648Y-51151828D01*
X28708157Y-50940566D01*
X28755276Y-50692381D01*
X28703833Y-50445056D01*
X28313102Y-49524551D01*
X28170927Y-49315739D01*
X27959665Y-49177230D01*
X27711480Y-49130111D01*
X27464155Y-49181554D01*
X26220108Y-49709620D01*
X26232485Y-49600987D01*
X26162854Y-49358154D01*
X26028359Y-48889115D01*
X25832001Y-48780272D01*
X24897895Y-49048122D01*
X25242235Y-50248978D01*
X25438593Y-50357821D01*
X25616167Y-50306903D01*
X25596908Y-50408345D01*
X25648351Y-50655670D01*
X25751098Y-50897727D01*
X25284251Y-51364575D01*
X25220630Y-51407085D01*
X25178119Y-51470707D01*
X25178118Y-51470708D01*
X25052213Y-51659139D01*
X24993073Y-51956456D01*
X25008001Y-52031504D01*
X25008000Y-53999464D01*
X23903649Y-50918575D01*
X23797769Y-50234430D01*
X23814912Y-50294214D01*
X23972171Y-50491916D01*
X24193116Y-50614387D01*
X24444111Y-50642984D01*
X24889232Y-50515348D01*
X24998075Y-50318990D01*
X24653735Y-49118134D01*
X24634509Y-49123647D01*
X24564498Y-48879487D01*
X24583723Y-48873974D01*
X24239383Y-47673118D01*
X24113078Y-47603106D01*
X24483543Y-47603106D01*
X24827883Y-48803962D01*
X25761989Y-48536111D01*
X25870832Y-48339753D01*
X25736337Y-47870715D01*
X25697421Y-47735000D01*
X26214250Y-47735000D01*
X26373000Y-47576250D01*
X26373000Y-46727000D01*
X25223750Y-46727000D01*
X25065000Y-46885750D01*
X25065000Y-47226310D01*
X25089316Y-47285015D01*
X25037507Y-47279112D01*
X24592386Y-47406748D01*
X24483543Y-47603106D01*
X24113078Y-47603106D01*
X24043025Y-47564275D01*
X23597904Y-47691911D01*
X23425507Y-47829043D01*
X23387208Y-47581575D01*
X23421484Y-45973690D01*
X25065000Y-45973690D01*
X25065000Y-46314250D01*
X25223750Y-46473000D01*
X26373000Y-46473000D01*
X26373000Y-45623750D01*
X26214250Y-45465000D01*
X25573691Y-45465000D01*
X25340302Y-45561673D01*
X25161673Y-45740301D01*
X25065000Y-45973690D01*
X23421484Y-45973690D01*
X23442647Y-44980984D01*
X23605750Y-44817881D01*
X23669371Y-44775371D01*
X23837788Y-44523317D01*
X23882000Y-44301048D01*
X23882000Y-44301043D01*
X23896927Y-44226000D01*
X23882000Y-44150957D01*
X23882000Y-42439135D01*
X24089050Y-42483145D01*
X24196018Y-42413679D01*
X24525786Y-42413679D01*
X24648061Y-42601966D01*
X25093029Y-42696547D01*
X25052560Y-42900000D01*
X25052560Y-43900000D01*
X25101843Y-44147765D01*
X25242191Y-44357809D01*
X25452235Y-44498157D01*
X25700000Y-44547440D01*
X25846440Y-44547440D01*
X25950629Y-44703371D01*
X26014253Y-44745883D01*
X26759560Y-45491190D01*
X26627000Y-45623750D01*
X26627000Y-46473000D01*
X26647000Y-46473000D01*
X26647000Y-46727000D01*
X26627000Y-46727000D01*
X26627000Y-47576250D01*
X26785750Y-47735000D01*
X27426309Y-47735000D01*
X27659698Y-47638327D01*
X27838327Y-47459699D01*
X27935000Y-47226310D01*
X27935000Y-46885750D01*
X27776252Y-46727002D01*
X27935000Y-46727002D01*
X27935000Y-46666630D01*
X33596618Y-52328249D01*
X33639129Y-52391871D01*
X33891183Y-52560288D01*
X34113452Y-52604500D01*
X34113457Y-52604500D01*
X34188500Y-52619427D01*
X34263543Y-52604500D01*
X43430308Y-52604500D01*
X43451843Y-52712765D01*
X43592191Y-52922809D01*
X43802235Y-53063157D01*
X44050000Y-53112440D01*
X45850000Y-53112440D01*
X46097765Y-53063157D01*
X46307809Y-52922809D01*
X46448157Y-52712765D01*
X46497440Y-52465000D01*
X46497440Y-51220000D01*
X46475068Y-51107528D01*
X46530000Y-51118455D01*
X46617752Y-51101000D01*
X46877651Y-51049303D01*
X47172375Y-50852375D01*
X47222084Y-50777980D01*
X47376931Y-50623133D01*
X61216282Y-50623133D01*
X61218487Y-50875742D01*
X61317194Y-51108279D01*
X61497374Y-51285341D01*
X62091290Y-51525299D01*
X62297949Y-51437577D01*
X62616084Y-50650166D01*
X62268696Y-50509812D01*
X62946738Y-50509812D01*
X64012304Y-50940328D01*
X64218964Y-50852607D01*
X64251907Y-50771069D01*
X64346540Y-50536845D01*
X64344471Y-50299785D01*
X64433735Y-50315525D01*
X64617640Y-50186753D01*
X64834570Y-48956482D01*
X63877583Y-48787740D01*
X63693678Y-48916511D01*
X63608948Y-49397039D01*
X63565081Y-49645820D01*
X63571572Y-49675098D01*
X63471532Y-49634679D01*
X63264873Y-49722401D01*
X62946738Y-50509812D01*
X62268696Y-50509812D01*
X61550518Y-50219650D01*
X61343858Y-50307371D01*
X61310915Y-50388909D01*
X61216282Y-50623133D01*
X47376931Y-50623133D01*
X47580564Y-50419500D01*
X47614726Y-50419500D01*
X48011488Y-50255156D01*
X48315156Y-49951488D01*
X48387229Y-49777486D01*
X61557946Y-49777486D01*
X61645668Y-49984145D01*
X62711234Y-50414662D01*
X63029368Y-49627251D01*
X62941647Y-49420591D01*
X62347731Y-49180634D01*
X62095122Y-49182838D01*
X61862585Y-49281544D01*
X61685522Y-49461724D01*
X61590889Y-49695948D01*
X61557946Y-49777486D01*
X48387229Y-49777486D01*
X48479500Y-49554726D01*
X48479500Y-49125274D01*
X48315156Y-48728512D01*
X48011488Y-48424844D01*
X47614726Y-48260500D01*
X47185274Y-48260500D01*
X46788512Y-48424844D01*
X46497440Y-48715916D01*
X46497440Y-48035000D01*
X46448157Y-47787235D01*
X46307809Y-47577191D01*
X46097765Y-47436843D01*
X46052488Y-47427837D01*
X46250000Y-47132239D01*
X46449375Y-47430625D01*
X46940582Y-47758839D01*
X47373744Y-47845000D01*
X47666256Y-47845000D01*
X48099418Y-47758839D01*
X48590625Y-47430625D01*
X48918839Y-46939418D01*
X49034092Y-46360000D01*
X48918839Y-45780582D01*
X48590625Y-45289375D01*
X48572381Y-45277184D01*
X48617765Y-45268157D01*
X48827809Y-45127809D01*
X48968157Y-44917765D01*
X49017440Y-44670000D01*
X49017440Y-43685750D01*
X62065000Y-43685750D01*
X62065000Y-44026310D01*
X62161673Y-44259699D01*
X62340302Y-44438327D01*
X62573691Y-44535000D01*
X63214250Y-44535000D01*
X63373000Y-44376250D01*
X63373000Y-43527000D01*
X63627000Y-43527000D01*
X63627000Y-44376250D01*
X63785750Y-44535000D01*
X64426309Y-44535000D01*
X64659698Y-44438327D01*
X64838327Y-44259699D01*
X64935000Y-44026310D01*
X64935000Y-43685750D01*
X64776250Y-43527000D01*
X63627000Y-43527000D01*
X63373000Y-43527000D01*
X62223750Y-43527000D01*
X62065000Y-43685750D01*
X49017440Y-43685750D01*
X49017440Y-42970000D01*
X48978392Y-42773690D01*
X62065000Y-42773690D01*
X62065000Y-43114250D01*
X62223750Y-43273000D01*
X63373000Y-43273000D01*
X63373000Y-42423750D01*
X63627000Y-42423750D01*
X63627000Y-43273000D01*
X64776250Y-43273000D01*
X64935000Y-43114250D01*
X64935000Y-42773690D01*
X64904429Y-42699886D01*
X64983037Y-42678823D01*
X65095290Y-42484394D01*
X64771960Y-41277712D01*
X63833322Y-41529219D01*
X63721069Y-41723647D01*
X63847357Y-42194962D01*
X63866124Y-42265000D01*
X63785750Y-42265000D01*
X63627000Y-42423750D01*
X63373000Y-42423750D01*
X63214250Y-42265000D01*
X62573691Y-42265000D01*
X62340302Y-42361673D01*
X62161673Y-42540301D01*
X62065000Y-42773690D01*
X48978392Y-42773690D01*
X48968157Y-42722235D01*
X48827809Y-42512191D01*
X48617765Y-42371843D01*
X48370000Y-42322560D01*
X46670000Y-42322560D01*
X46422235Y-42371843D01*
X46212191Y-42512191D01*
X46071843Y-42722235D01*
X46062816Y-42767619D01*
X46050625Y-42749375D01*
X45559418Y-42421161D01*
X45126256Y-42335000D01*
X44833744Y-42335000D01*
X44400582Y-42421161D01*
X43909375Y-42749375D01*
X43710000Y-43047761D01*
X43510625Y-42749375D01*
X43019418Y-42421161D01*
X42586256Y-42335000D01*
X42293744Y-42335000D01*
X41860582Y-42421161D01*
X41369375Y-42749375D01*
X41041161Y-43240582D01*
X40925908Y-43820000D01*
X41041161Y-44399418D01*
X41369375Y-44890625D01*
X41669786Y-45091353D01*
X41244817Y-45478642D01*
X40998514Y-46003108D01*
X41119181Y-46233000D01*
X42313000Y-46233000D01*
X42313000Y-46213000D01*
X42567000Y-46213000D01*
X42567000Y-46233000D01*
X42587000Y-46233000D01*
X42587000Y-46487000D01*
X42567000Y-46487000D01*
X42567000Y-47680155D01*
X42796890Y-47801476D01*
X43206924Y-47631645D01*
X43635183Y-47241358D01*
X43696157Y-47111522D01*
X43900473Y-47417302D01*
X43802235Y-47436843D01*
X43592191Y-47577191D01*
X43451843Y-47787235D01*
X43402560Y-48035000D01*
X43402560Y-49172496D01*
X43389500Y-49159436D01*
X43389500Y-49125274D01*
X43225156Y-48728512D01*
X42921488Y-48424844D01*
X42524726Y-48260500D01*
X42095274Y-48260500D01*
X41698512Y-48424844D01*
X41394844Y-48728512D01*
X41230500Y-49125274D01*
X41230500Y-49554726D01*
X41394844Y-49951488D01*
X41698512Y-50255156D01*
X42095274Y-50419500D01*
X42129436Y-50419500D01*
X42487916Y-50777980D01*
X42537625Y-50852375D01*
X42808026Y-51033051D01*
X42832349Y-51049303D01*
X42989187Y-51080500D01*
X34504131Y-51080500D01*
X30140523Y-46716892D01*
X40998514Y-46716892D01*
X41244817Y-47241358D01*
X41673076Y-47631645D01*
X42083110Y-47801476D01*
X42313000Y-47680155D01*
X42313000Y-46487000D01*
X41119181Y-46487000D01*
X40998514Y-46716892D01*
X30140523Y-46716892D01*
X27767274Y-44343644D01*
X27898157Y-44147765D01*
X27947440Y-43900000D01*
X27947440Y-42900000D01*
X27898157Y-42652235D01*
X27757809Y-42442191D01*
X27547765Y-42301843D01*
X27300000Y-42252560D01*
X25715790Y-42252560D01*
X25756861Y-42059332D01*
X25858310Y-41582054D01*
X25736035Y-41393767D01*
X24785520Y-41191729D01*
X24525786Y-42413679D01*
X24196018Y-42413679D01*
X24277337Y-42360870D01*
X24537070Y-41138919D01*
X24517507Y-41134761D01*
X24558208Y-40943279D01*
X24838330Y-40943279D01*
X25788844Y-41145317D01*
X25977131Y-41023042D01*
X26078580Y-40545764D01*
X26115355Y-40372749D01*
X26970632Y-40372749D01*
X27058353Y-40579409D01*
X27652269Y-40819366D01*
X27904878Y-40817162D01*
X28137415Y-40718456D01*
X28314478Y-40538276D01*
X28409111Y-40304052D01*
X28442054Y-40222514D01*
X28354332Y-40015855D01*
X27288766Y-39585338D01*
X26970632Y-40372749D01*
X26115355Y-40372749D01*
X26131102Y-40298665D01*
X26112292Y-40197175D01*
X26528468Y-40365321D01*
X26735127Y-40277599D01*
X27053262Y-39490188D01*
X26705874Y-39349834D01*
X27383916Y-39349834D01*
X28449482Y-39780350D01*
X28656142Y-39692629D01*
X28689085Y-39611091D01*
X28783718Y-39376867D01*
X28781513Y-39124258D01*
X28682806Y-38891721D01*
X28502626Y-38714659D01*
X27908710Y-38474701D01*
X27702051Y-38562423D01*
X27383916Y-39349834D01*
X26705874Y-39349834D01*
X25987696Y-39059672D01*
X25781036Y-39147393D01*
X25748093Y-39228931D01*
X25653460Y-39463155D01*
X25655331Y-39677483D01*
X25286350Y-39599053D01*
X25098063Y-39721328D01*
X24838330Y-40943279D01*
X24558208Y-40943279D01*
X24570318Y-40886311D01*
X24589880Y-40890469D01*
X24849614Y-39668519D01*
X24817918Y-39619712D01*
X26113762Y-38323869D01*
X26028067Y-38535970D01*
X25995124Y-38617508D01*
X26082846Y-38824167D01*
X27148412Y-39254684D01*
X27466546Y-38467273D01*
X27378825Y-38260613D01*
X26784909Y-38020656D01*
X26532300Y-38022860D01*
X26328088Y-38109543D01*
X27222609Y-37215022D01*
X27242385Y-37215022D01*
X27245745Y-37217225D01*
X28729239Y-37816595D01*
X28977424Y-37863714D01*
X29224749Y-37812271D01*
X29433561Y-37670095D01*
X29572070Y-37458834D01*
X29625030Y-37327753D01*
X60364295Y-37327753D01*
X60398656Y-37408704D01*
X60497362Y-37641241D01*
X60677543Y-37818303D01*
X60911767Y-37912935D01*
X61164376Y-37910731D01*
X61754014Y-37660444D01*
X61838115Y-37452286D01*
X61506287Y-36670547D01*
X60448397Y-37119595D01*
X60364295Y-37327753D01*
X29625030Y-37327753D01*
X29946676Y-36531650D01*
X29993795Y-36283465D01*
X29983837Y-36235589D01*
X60005720Y-36235589D01*
X60007925Y-36488198D01*
X60106631Y-36720735D01*
X60140992Y-36801685D01*
X60349151Y-36885786D01*
X61407041Y-36436739D01*
X61075213Y-35655000D01*
X60867054Y-35570898D01*
X60277416Y-35821185D01*
X60100354Y-36001365D01*
X60005720Y-36235589D01*
X29983837Y-36235589D01*
X29942352Y-36036140D01*
X29800177Y-35827328D01*
X29588915Y-35688819D01*
X28374237Y-35198057D01*
X28475592Y-35041983D01*
X28741344Y-34632762D01*
X28694666Y-34413161D01*
X27879688Y-33883908D01*
X27199298Y-34931618D01*
X27245975Y-35151218D01*
X27393738Y-35247176D01*
X27262590Y-35447210D01*
X27164084Y-35691022D01*
X26982025Y-35691022D01*
X26906978Y-35676094D01*
X26831931Y-35691022D01*
X26831930Y-35691022D01*
X26609661Y-35735234D01*
X26517129Y-35797062D01*
X26471833Y-35827328D01*
X26357607Y-35903651D01*
X26315096Y-35967273D01*
X23938167Y-38344202D01*
X24562799Y-36732785D01*
X26578093Y-34717491D01*
X26766675Y-34839957D01*
X26986275Y-34793279D01*
X27666666Y-33745570D01*
X27649892Y-33734677D01*
X27691318Y-33670886D01*
X28018026Y-33670886D01*
X28833004Y-34200139D01*
X29052605Y-34153461D01*
X29295618Y-33779254D01*
X30235886Y-33779254D01*
X30235886Y-34003760D01*
X30688829Y-34456704D01*
X30922218Y-34553376D01*
X31174837Y-34553377D01*
X31408226Y-34456704D01*
X31586855Y-34278076D01*
X31649038Y-34215892D01*
X31649038Y-33991386D01*
X30836396Y-33178743D01*
X30235886Y-33779254D01*
X29295618Y-33779254D01*
X29318357Y-33744240D01*
X29455943Y-33532376D01*
X29501979Y-33283987D01*
X29498164Y-33266039D01*
X29831774Y-33599648D01*
X30056280Y-33599648D01*
X30656791Y-32999138D01*
X31016001Y-32999138D01*
X31828644Y-33811780D01*
X32053150Y-33811780D01*
X32115334Y-33749597D01*
X32293962Y-33570968D01*
X32390635Y-33337579D01*
X32390634Y-33084960D01*
X32293962Y-32851571D01*
X31841018Y-32398628D01*
X31616512Y-32398628D01*
X31016001Y-32999138D01*
X30656791Y-32999138D01*
X29844148Y-32186496D01*
X29619642Y-32186496D01*
X29557458Y-32248679D01*
X29378830Y-32427308D01*
X29282157Y-32660697D01*
X29282158Y-32812975D01*
X28918017Y-32576499D01*
X28698417Y-32623177D01*
X28018026Y-33670886D01*
X27691318Y-33670886D01*
X27788231Y-33521655D01*
X27805004Y-33532548D01*
X28485394Y-32484838D01*
X28438717Y-32265238D01*
X28283313Y-32164318D01*
X28949235Y-31498396D01*
X30368802Y-31498396D01*
X30264566Y-31541572D01*
X30085937Y-31720200D01*
X30023754Y-31782384D01*
X30023754Y-32006890D01*
X30836396Y-32819533D01*
X31436906Y-32219022D01*
X31436906Y-31994516D01*
X30983963Y-31541572D01*
X30879726Y-31498396D01*
X32238413Y-31498396D01*
X32853461Y-32113444D01*
X33063505Y-32253792D01*
X33311270Y-32303075D01*
X33559035Y-32253792D01*
X33769079Y-32113444D01*
X34053879Y-31828644D01*
X56288220Y-31828644D01*
X56288220Y-32053150D01*
X56350403Y-32115334D01*
X56529032Y-32293962D01*
X56762421Y-32390635D01*
X57015040Y-32390634D01*
X57248429Y-32293962D01*
X57701372Y-31841018D01*
X57701372Y-31616512D01*
X57100862Y-31016001D01*
X56288220Y-31828644D01*
X34053879Y-31828644D01*
X34476186Y-31406337D01*
X34616534Y-31196293D01*
X34620801Y-31174837D01*
X55546623Y-31174837D01*
X55643296Y-31408226D01*
X55821924Y-31586855D01*
X55884108Y-31649038D01*
X56108614Y-31649038D01*
X56921257Y-30836396D01*
X56320746Y-30235886D01*
X56096240Y-30235886D01*
X55643296Y-30688829D01*
X55546624Y-30922218D01*
X55546623Y-31174837D01*
X34620801Y-31174837D01*
X34665817Y-30948528D01*
X34616534Y-30700763D01*
X34476186Y-30490719D01*
X33344815Y-29359348D01*
X33257646Y-29301103D01*
X33474886Y-29248949D01*
X33634550Y-29132946D01*
X35570898Y-29132946D01*
X35821185Y-29722584D01*
X36001365Y-29899646D01*
X36235589Y-29994280D01*
X36488198Y-29992075D01*
X36720735Y-29893369D01*
X36801685Y-29859008D01*
X36885786Y-29650849D01*
X36436739Y-28592959D01*
X35655000Y-28924787D01*
X35570898Y-29132946D01*
X33634550Y-29132946D01*
X33679259Y-29100463D01*
X34074011Y-28813659D01*
X34109132Y-28591916D01*
X33537952Y-27805754D01*
X32527287Y-28540045D01*
X32492167Y-28761787D01*
X32764346Y-29136410D01*
X32835437Y-29179975D01*
X32639241Y-29219000D01*
X32429197Y-29359348D01*
X31814149Y-29974396D01*
X30258753Y-29974396D01*
X30275487Y-29949351D01*
X32059107Y-28165732D01*
X32156247Y-28299434D01*
X32377990Y-28334554D01*
X33311312Y-27656456D01*
X33743442Y-27656456D01*
X34314622Y-28442619D01*
X34536365Y-28477739D01*
X34931117Y-28190935D01*
X35114487Y-28057709D01*
X35347596Y-28606878D01*
X35555754Y-28690979D01*
X36020484Y-28493713D01*
X36670547Y-28493713D01*
X37119595Y-29551603D01*
X37327753Y-29635705D01*
X37408704Y-29601344D01*
X37641241Y-29502638D01*
X37818303Y-29322457D01*
X37912935Y-29088233D01*
X37910731Y-28835624D01*
X37660444Y-28245986D01*
X37452286Y-28161885D01*
X36670547Y-28493713D01*
X36020484Y-28493713D01*
X36337493Y-28359151D01*
X35888445Y-27301261D01*
X35680287Y-27217159D01*
X35599336Y-27251520D01*
X35366799Y-27350226D01*
X35274881Y-27443763D01*
X35248028Y-27331909D01*
X35153655Y-27202015D01*
X36122254Y-27202015D01*
X36571301Y-28259905D01*
X37353040Y-27928077D01*
X37437142Y-27719918D01*
X37186855Y-27130280D01*
X37006675Y-26953218D01*
X36772451Y-26858584D01*
X36519842Y-26860789D01*
X36287305Y-26959495D01*
X36206355Y-26993856D01*
X36122254Y-27202015D01*
X35153655Y-27202015D01*
X34975849Y-26957286D01*
X34754106Y-26922166D01*
X33743442Y-27656456D01*
X33311312Y-27656456D01*
X33388654Y-27600264D01*
X33376898Y-27584083D01*
X33582389Y-27434786D01*
X33594144Y-27450966D01*
X34604809Y-26716675D01*
X34639929Y-26494933D01*
X34586940Y-26422000D01*
X37617914Y-26422000D01*
X38080010Y-26884097D01*
X38080828Y-26888029D01*
X38705997Y-28360836D01*
X38848172Y-28569648D01*
X39059434Y-28708157D01*
X39307619Y-28755276D01*
X39554944Y-28703833D01*
X39918572Y-28549482D01*
X50619650Y-28549482D01*
X50707371Y-28756142D01*
X50788909Y-28789085D01*
X51023133Y-28883718D01*
X51275742Y-28881513D01*
X51508279Y-28782806D01*
X51685341Y-28602626D01*
X51925299Y-28008710D01*
X51837577Y-27802051D01*
X51050166Y-27483916D01*
X50619650Y-28549482D01*
X39918572Y-28549482D01*
X40475449Y-28313102D01*
X40684261Y-28170927D01*
X40822770Y-27959665D01*
X40869889Y-27711480D01*
X40818446Y-27464155D01*
X40530481Y-26785750D01*
X42265000Y-26785750D01*
X42265000Y-27426309D01*
X42361673Y-27659698D01*
X42540301Y-27838327D01*
X42773690Y-27935000D01*
X43114250Y-27935000D01*
X43273000Y-27776250D01*
X43273000Y-26627000D01*
X43527000Y-26627000D01*
X43527000Y-27776250D01*
X43685750Y-27935000D01*
X44026310Y-27935000D01*
X44259699Y-27838327D01*
X44438327Y-27659698D01*
X44535000Y-27426309D01*
X44535000Y-26785750D01*
X44376250Y-26627000D01*
X43527000Y-26627000D01*
X43273000Y-26627000D01*
X42423750Y-26627000D01*
X42265000Y-26785750D01*
X40530481Y-26785750D01*
X40383969Y-26440591D01*
X40411099Y-26440354D01*
X40643636Y-26341648D01*
X41092788Y-26150994D01*
X41176890Y-25942836D01*
X40797197Y-25048335D01*
X39647256Y-25536456D01*
X39620611Y-25602405D01*
X39591655Y-25596908D01*
X39344330Y-25648351D01*
X39102273Y-25751098D01*
X38688276Y-25337102D01*
X38909371Y-25189371D01*
X38951883Y-25125747D01*
X39196589Y-24881041D01*
X39339852Y-25218546D01*
X39548010Y-25302648D01*
X40380942Y-24949089D01*
X41031005Y-24949089D01*
X41410698Y-25843590D01*
X41618857Y-25927691D01*
X42068009Y-25737038D01*
X42265000Y-25653420D01*
X42265000Y-26214250D01*
X42423750Y-26373000D01*
X43273000Y-26373000D01*
X43273000Y-25223750D01*
X43527000Y-25223750D01*
X43527000Y-26373000D01*
X44376250Y-26373000D01*
X44535000Y-26214250D01*
X44535000Y-25573691D01*
X44438327Y-25340302D01*
X44259699Y-25161673D01*
X44026310Y-25065000D01*
X43685750Y-25065000D01*
X43527000Y-25223750D01*
X43273000Y-25223750D01*
X43114250Y-25065000D01*
X42773690Y-25065000D01*
X42571584Y-25148715D01*
X42570036Y-24971318D01*
X42389104Y-24545070D01*
X42180946Y-24460968D01*
X41031005Y-24949089D01*
X40380942Y-24949089D01*
X40697951Y-24814527D01*
X40690136Y-24796116D01*
X40923944Y-24696871D01*
X40931759Y-24715281D01*
X42081700Y-24227160D01*
X42165802Y-24019001D01*
X42048222Y-23742000D01*
X43064370Y-23742000D01*
X45452560Y-26130190D01*
X45452560Y-27300000D01*
X45501843Y-27547765D01*
X45642191Y-27757809D01*
X45852235Y-27898157D01*
X46100000Y-27947440D01*
X47100000Y-27947440D01*
X47347765Y-27898157D01*
X47557809Y-27757809D01*
X47561510Y-27752269D01*
X49580634Y-27752269D01*
X49582838Y-28004878D01*
X49681544Y-28237415D01*
X49861724Y-28414478D01*
X50095948Y-28509111D01*
X50177486Y-28542054D01*
X50384145Y-28454332D01*
X50814662Y-27388766D01*
X50467273Y-27248412D01*
X51145316Y-27248412D01*
X51932727Y-27566546D01*
X52139387Y-27478825D01*
X52379344Y-26884909D01*
X52377140Y-26632300D01*
X52278434Y-26399763D01*
X52098254Y-26222700D01*
X51864030Y-26128067D01*
X51782492Y-26095124D01*
X51575833Y-26182846D01*
X51145316Y-27248412D01*
X50467273Y-27248412D01*
X50027251Y-27070632D01*
X49820591Y-27158353D01*
X49580634Y-27752269D01*
X47561510Y-27752269D01*
X47698157Y-27547765D01*
X47747440Y-27300000D01*
X47747440Y-25700000D01*
X47698157Y-25452235D01*
X47557809Y-25242191D01*
X47347765Y-25101843D01*
X47100000Y-25052560D01*
X46530190Y-25052560D01*
X46512739Y-25035109D01*
X47846797Y-25035109D01*
X47857816Y-25287487D01*
X47964577Y-25516438D01*
X48150827Y-25687105D01*
X48388211Y-25773506D01*
X48846726Y-25940391D01*
X48863897Y-25932384D01*
X49288879Y-25932384D01*
X49383760Y-26135856D01*
X49842274Y-26302741D01*
X50079659Y-26389142D01*
X50132302Y-26386844D01*
X50034679Y-26628468D01*
X50122401Y-26835127D01*
X50909812Y-27153262D01*
X51340328Y-26087696D01*
X51252607Y-25881036D01*
X51171069Y-25848093D01*
X50936845Y-25753460D01*
X50852095Y-25754200D01*
X50890029Y-25649978D01*
X50795148Y-25446506D01*
X49621237Y-25019238D01*
X49288879Y-25932384D01*
X48863897Y-25932384D01*
X49050197Y-25845511D01*
X49382555Y-24932364D01*
X48208644Y-24505096D01*
X48005173Y-24599976D01*
X47846797Y-25035109D01*
X46512739Y-25035109D01*
X44451242Y-22973612D01*
X44542564Y-22966195D01*
X45422117Y-23845748D01*
X45422117Y-23845748D01*
G37*
X45422117Y-23845748D02*
X45464629Y-23909371D01*
X45528251Y-23951882D01*
X45716681Y-24077787D01*
X45716682Y-24077787D01*
X45716683Y-24077788D01*
X45938952Y-24122000D01*
X45938956Y-24122000D01*
X46013999Y-24136927D01*
X46089042Y-24122000D01*
X48228176Y-24122000D01*
X48295518Y-24266414D01*
X49469429Y-24693682D01*
X49476269Y-24674889D01*
X49714952Y-24761762D01*
X49708111Y-24780556D01*
X50882022Y-25207824D01*
X51030812Y-25138442D01*
X53184978Y-27292609D01*
X53184978Y-27342384D01*
X53182775Y-27345745D01*
X52583405Y-28829239D01*
X52536286Y-29077424D01*
X52587729Y-29324749D01*
X52729905Y-29533561D01*
X52941166Y-29672070D01*
X53868350Y-30046676D01*
X54116535Y-30093795D01*
X54363860Y-30042352D01*
X54572672Y-29900177D01*
X54711181Y-29688915D01*
X54977820Y-29028958D01*
X56144776Y-29028958D01*
X56183761Y-29250053D01*
X56583459Y-29529925D01*
X56712115Y-29620010D01*
X56500352Y-29831774D01*
X56500352Y-30056280D01*
X57100862Y-30656791D01*
X57913504Y-29844148D01*
X57913504Y-29619642D01*
X57851321Y-29557458D01*
X57672692Y-29378830D01*
X57630795Y-29361476D01*
X57764460Y-29170583D01*
X57725475Y-28949487D01*
X56702149Y-28232947D01*
X56144776Y-29028958D01*
X54977820Y-29028958D01*
X55174122Y-28543096D01*
X55315918Y-28642383D01*
X55715616Y-28922254D01*
X55936712Y-28883269D01*
X56494084Y-28087258D01*
X55470759Y-27370718D01*
X55249663Y-27409703D01*
X55174708Y-27516750D01*
X55164051Y-27501099D01*
X54952790Y-27362590D01*
X54708978Y-27264084D01*
X54708978Y-27052020D01*
X54723905Y-26976977D01*
X54708978Y-26901934D01*
X54708978Y-26901930D01*
X54664766Y-26679661D01*
X54635789Y-26636293D01*
X54538860Y-26491229D01*
X54496349Y-26427607D01*
X54432728Y-26385097D01*
X54409972Y-26362341D01*
X54424251Y-26371882D01*
X54440356Y-26382643D01*
X54612683Y-26497788D01*
X54834952Y-26542000D01*
X54834953Y-26542000D01*
X54910000Y-26556928D01*
X54985047Y-26542000D01*
X55874835Y-26542000D01*
X55843062Y-26562242D01*
X55577462Y-26941557D01*
X55616447Y-27162653D01*
X56639773Y-27879193D01*
X56651244Y-27862810D01*
X56859310Y-28008499D01*
X56847838Y-28024882D01*
X57871163Y-28741422D01*
X58092259Y-28702437D01*
X58167439Y-28595069D01*
X58601604Y-29029235D01*
X58601604Y-30368803D01*
X58558428Y-30264566D01*
X58379800Y-30085937D01*
X58317616Y-30023754D01*
X58093110Y-30023754D01*
X57280467Y-30836396D01*
X57880978Y-31436906D01*
X58105484Y-31436906D01*
X58558428Y-30983963D01*
X58601604Y-30879725D01*
X58601605Y-32238412D01*
X57986556Y-32853461D01*
X57846208Y-33063505D01*
X57796925Y-33311270D01*
X57846208Y-33559035D01*
X57986556Y-33769079D01*
X58693663Y-34476186D01*
X58903707Y-34616534D01*
X59151472Y-34665817D01*
X59399237Y-34616534D01*
X59609281Y-34476186D01*
X60528117Y-33557350D01*
X60621645Y-33690922D01*
X60901517Y-34090620D01*
X61122612Y-34129605D01*
X61918623Y-33572232D01*
X61202083Y-32548906D01*
X60980987Y-32509921D01*
X60854003Y-32598837D01*
X60740652Y-32429197D01*
X60125604Y-31814149D01*
X60125604Y-30551544D01*
X60150647Y-30568277D01*
X61634615Y-32052246D01*
X61449133Y-32182122D01*
X61410148Y-32403218D01*
X62126688Y-33426543D01*
X62143071Y-33415071D01*
X62288760Y-33623137D01*
X62272377Y-33634608D01*
X62283849Y-33650991D01*
X62075783Y-33796680D01*
X62064312Y-33780297D01*
X61268301Y-34337669D01*
X61229316Y-34558765D01*
X61509187Y-34958463D01*
X61654084Y-35165396D01*
X61721371Y-35208262D01*
X61393122Y-35347596D01*
X61309021Y-35555754D01*
X61640849Y-36337493D01*
X61659260Y-36329678D01*
X61758505Y-36563486D01*
X61740095Y-36571301D01*
X62071923Y-37353040D01*
X62280082Y-37437142D01*
X62742730Y-37240759D01*
X62742730Y-38237561D01*
X61639164Y-38705997D01*
X61430352Y-38848172D01*
X61291843Y-39059434D01*
X61244724Y-39307619D01*
X61296167Y-39554944D01*
X61686898Y-40475449D01*
X61829073Y-40684261D01*
X62040335Y-40822770D01*
X62288520Y-40869889D01*
X62535845Y-40818446D01*
X63382253Y-40459168D01*
X63446865Y-40700306D01*
X63573154Y-41171621D01*
X63767582Y-41283874D01*
X64706220Y-41032366D01*
X64382891Y-39825684D01*
X64361054Y-39813076D01*
X64403092Y-39591655D01*
X64351649Y-39344330D01*
X64226041Y-39048416D01*
X64266729Y-38843863D01*
X64266729Y-38843859D01*
X64281656Y-38768816D01*
X64266729Y-38693773D01*
X64266729Y-34135609D01*
X64365581Y-34277896D01*
X65351653Y-37159809D01*
X65351654Y-39467243D01*
X65187770Y-39445667D01*
X64740489Y-39565515D01*
X64628236Y-39759944D01*
X64951566Y-40966626D01*
X64970884Y-40961450D01*
X65036625Y-41206796D01*
X65017306Y-41211972D01*
X65340635Y-42418654D01*
X65535064Y-42530908D01*
X65658001Y-42497967D01*
X65658001Y-43694368D01*
X63899810Y-45452560D01*
X62700000Y-45452560D01*
X62452235Y-45501843D01*
X62242191Y-45642191D01*
X62101843Y-45852235D01*
X62052560Y-46100000D01*
X62052560Y-47100000D01*
X62101843Y-47347765D01*
X62242191Y-47557809D01*
X62452235Y-47698157D01*
X62700000Y-47747440D01*
X63899817Y-47747440D01*
X63877648Y-47873166D01*
X63792918Y-48353694D01*
X63921690Y-48537598D01*
X64878677Y-48706341D01*
X65095607Y-47476070D01*
X64966835Y-47292165D01*
X64911169Y-47282350D01*
X64947440Y-47100000D01*
X64947440Y-46560190D01*
X66694853Y-44812777D01*
X66698540Y-44877830D01*
X66154253Y-45422117D01*
X66090629Y-45464629D01*
X65922212Y-45716684D01*
X65878000Y-45938953D01*
X65878000Y-45938957D01*
X65863073Y-46014000D01*
X65878000Y-46089043D01*
X65878000Y-47452828D01*
X65529653Y-47391405D01*
X65345748Y-47520177D01*
X65128818Y-48750448D01*
X65148514Y-48753921D01*
X65104407Y-49004062D01*
X65084711Y-49000589D01*
X64867781Y-50230860D01*
X64926974Y-50315396D01*
X63961668Y-51280701D01*
X63917154Y-51175833D01*
X62851588Y-50745316D01*
X62533454Y-51532727D01*
X62621175Y-51739387D01*
X63215091Y-51979344D01*
X63263448Y-51978922D01*
X62544387Y-52697983D01*
X61270761Y-52183405D01*
X61022576Y-52136286D01*
X60775251Y-52187729D01*
X60566439Y-52329905D01*
X60427930Y-52541166D01*
X60053324Y-53468350D01*
X60006205Y-53716535D01*
X60057648Y-53963860D01*
X60199823Y-54172672D01*
X60411085Y-54311181D01*
X61762417Y-54857154D01*
X61520450Y-55145519D01*
X61540017Y-55369171D01*
X62284420Y-55993800D01*
X63087423Y-55036819D01*
X63067856Y-54813167D01*
X62742509Y-54540169D01*
X62834855Y-54311606D01*
X62848065Y-54308978D01*
X62848070Y-54308978D01*
X63070339Y-54264766D01*
X63322393Y-54096349D01*
X63364905Y-54032725D01*
X65916795Y-51480835D01*
X65650570Y-52286445D01*
X65542811Y-52358447D01*
X65500300Y-52422069D01*
X63754253Y-54168117D01*
X63690629Y-54210629D01*
X63522212Y-54462684D01*
X63478000Y-54684953D01*
X63478000Y-54684957D01*
X63463073Y-54760000D01*
X63478000Y-54835044D01*
X63478000Y-55182939D01*
X63281998Y-55200087D01*
X62478996Y-56157068D01*
X62494317Y-56169924D01*
X62331048Y-56364499D01*
X62315728Y-56351644D01*
X61512725Y-57308625D01*
X61532292Y-57532277D01*
X61715969Y-57686400D01*
X60800766Y-58601604D01*
X59831198Y-58601604D01*
X59935434Y-58558428D01*
X60114063Y-58379800D01*
X60176246Y-58317616D01*
X60176246Y-58093110D01*
X59363604Y-57280467D01*
X58763094Y-57880978D01*
X58763094Y-58105484D01*
X59216037Y-58558428D01*
X59320274Y-58601604D01*
X57961587Y-58601604D01*
X57346539Y-57986556D01*
X57136495Y-57846208D01*
X56888730Y-57796925D01*
X56640965Y-57846208D01*
X56430921Y-57986556D01*
X55723814Y-58693663D01*
X55583466Y-58903707D01*
X55534183Y-59151472D01*
X55583466Y-59399237D01*
X55723814Y-59609281D01*
X56557749Y-60443216D01*
X56525114Y-60451051D01*
X56320741Y-60599537D01*
X55925989Y-60886341D01*
X55890868Y-61108084D01*
X56462048Y-61894246D01*
X57472713Y-61159955D01*
X57507833Y-60938213D01*
X57478197Y-60897422D01*
X57560759Y-60881000D01*
X57770803Y-60740652D01*
X58385851Y-60125604D01*
X60862155Y-60125604D01*
X60704502Y-60298659D01*
X59894383Y-60298659D01*
X59819340Y-60283732D01*
X59744297Y-60298659D01*
X59744293Y-60298659D01*
X59522024Y-60342871D01*
X59522023Y-60342872D01*
X59522022Y-60342872D01*
X59367251Y-60446287D01*
X59269970Y-60511288D01*
X59227459Y-60574910D01*
X58078585Y-61723785D01*
X57843753Y-61400566D01*
X57622010Y-61365446D01*
X56611346Y-62099736D01*
X56623102Y-62115917D01*
X56417611Y-62265214D01*
X56405856Y-62249034D01*
X55395191Y-62983325D01*
X55361190Y-63198000D01*
X52002087Y-63198000D01*
X51919990Y-63115903D01*
X51919172Y-63111971D01*
X51566057Y-62280082D01*
X52562858Y-62280082D01*
X52813145Y-62869720D01*
X52993325Y-63046782D01*
X53227549Y-63141416D01*
X53480158Y-63139211D01*
X53712695Y-63040505D01*
X53793645Y-63006144D01*
X53877746Y-62797985D01*
X53428699Y-61740095D01*
X52646960Y-62071923D01*
X52562858Y-62280082D01*
X51566057Y-62280082D01*
X51294003Y-61639164D01*
X51151828Y-61430352D01*
X50940566Y-61291843D01*
X50692381Y-61244724D01*
X50445056Y-61296167D01*
X49524551Y-61686898D01*
X49315739Y-61829073D01*
X49177230Y-62040335D01*
X49130111Y-62288520D01*
X49181554Y-62535845D01*
X49682597Y-63716229D01*
X49497039Y-63748948D01*
X49016511Y-63833678D01*
X48887740Y-64017583D01*
X49056482Y-64974570D01*
X50286753Y-64757640D01*
X50415525Y-64573735D01*
X50384643Y-64398592D01*
X50408345Y-64403092D01*
X50655670Y-64351649D01*
X50897727Y-64248902D01*
X51094574Y-64445749D01*
X51137085Y-64509371D01*
X51200707Y-64551882D01*
X51238191Y-64576928D01*
X51389139Y-64677788D01*
X51611408Y-64722000D01*
X51611409Y-64722000D01*
X51686456Y-64736928D01*
X51761503Y-64722000D01*
X52323475Y-64722000D01*
X52280629Y-64750629D01*
X52242295Y-64808000D01*
X51875042Y-64808000D01*
X51799999Y-64793073D01*
X51724956Y-64808000D01*
X51724952Y-64808000D01*
X51502683Y-64852212D01*
X51250629Y-65020629D01*
X51208118Y-65084251D01*
X50894370Y-65398000D01*
X50815042Y-65398000D01*
X50739999Y-65383073D01*
X50664956Y-65398000D01*
X50664952Y-65398000D01*
X50564392Y-65418003D01*
X50514765Y-65136553D01*
X50330860Y-65007781D01*
X49100589Y-65224711D01*
X49104062Y-65244407D01*
X48853921Y-65288514D01*
X48850448Y-65268818D01*
X47620177Y-65485748D01*
X47491405Y-65669653D01*
X47558118Y-66048000D01*
X46725631Y-66048000D01*
X44547440Y-63869810D01*
X44547440Y-63785750D01*
X45465000Y-63785750D01*
X45465000Y-64426309D01*
X45561673Y-64659698D01*
X45740301Y-64838327D01*
X45973690Y-64935000D01*
X46314250Y-64935000D01*
X46473000Y-64776250D01*
X46473000Y-63627000D01*
X46727000Y-63627000D01*
X46727000Y-64776250D01*
X46885750Y-64935000D01*
X47226310Y-64935000D01*
X47352639Y-64882673D01*
X47392165Y-65106835D01*
X47576070Y-65235607D01*
X48806341Y-65018677D01*
X48637598Y-64061690D01*
X48453694Y-63932918D01*
X47973166Y-64017648D01*
X47735000Y-64059643D01*
X47735000Y-63785750D01*
X47576250Y-63627000D01*
X46727000Y-63627000D01*
X46473000Y-63627000D01*
X45623750Y-63627000D01*
X45465000Y-63785750D01*
X44547440Y-63785750D01*
X44547440Y-62700000D01*
X44522316Y-62573691D01*
X45465000Y-62573691D01*
X45465000Y-63214250D01*
X45623750Y-63373000D01*
X46473000Y-63373000D01*
X46473000Y-62223750D01*
X46727000Y-62223750D01*
X46727000Y-63373000D01*
X47576250Y-63373000D01*
X47735000Y-63214250D01*
X47735000Y-62573691D01*
X47638327Y-62340302D01*
X47459699Y-62161673D01*
X47226310Y-62065000D01*
X46885750Y-62065000D01*
X46727000Y-62223750D01*
X46473000Y-62223750D01*
X46314250Y-62065000D01*
X45973690Y-62065000D01*
X45740301Y-62161673D01*
X45561673Y-62340302D01*
X45465000Y-62573691D01*
X44522316Y-62573691D01*
X44498157Y-62452235D01*
X44357809Y-62242191D01*
X44147765Y-62101843D01*
X43900000Y-62052560D01*
X42900000Y-62052560D01*
X42652235Y-62101843D01*
X42442191Y-62242191D01*
X42301843Y-62452235D01*
X42252560Y-62700000D01*
X42252560Y-64071001D01*
X42176834Y-64057648D01*
X41696306Y-63972918D01*
X41512402Y-64101690D01*
X41343659Y-65058677D01*
X42573930Y-65275607D01*
X42757835Y-65146835D01*
X42796619Y-64926877D01*
X42900000Y-64947440D01*
X43469810Y-64947440D01*
X45264467Y-66742097D01*
X45166106Y-66742476D01*
X44747883Y-66324253D01*
X44705371Y-66260629D01*
X44453317Y-66092212D01*
X44231048Y-66048000D01*
X44231043Y-66048000D01*
X44156000Y-66033073D01*
X44080957Y-66048000D01*
X42598936Y-66048000D01*
X42658595Y-65709653D01*
X42529823Y-65525748D01*
X41299552Y-65308818D01*
X41296079Y-65328514D01*
X41045938Y-65284407D01*
X41049411Y-65264711D01*
X39819140Y-65047781D01*
X39635235Y-65176553D01*
X39554826Y-65632577D01*
X39609235Y-65878000D01*
X39575631Y-65878000D01*
X37709935Y-64012304D01*
X39059672Y-64012304D01*
X39147393Y-64218964D01*
X39228931Y-64251907D01*
X39463155Y-64346540D01*
X39715764Y-64344335D01*
X39787334Y-64313955D01*
X39734475Y-64613735D01*
X39863247Y-64797640D01*
X41093518Y-65014570D01*
X41262260Y-64057583D01*
X41133489Y-63873678D01*
X40652961Y-63788948D01*
X40404180Y-63745081D01*
X40240103Y-63781456D01*
X40365321Y-63471532D01*
X40277599Y-63264873D01*
X39490188Y-62946738D01*
X39059672Y-64012304D01*
X37709935Y-64012304D01*
X37215022Y-63517392D01*
X37215022Y-63215091D01*
X38020656Y-63215091D01*
X38022860Y-63467700D01*
X38121566Y-63700237D01*
X38301746Y-63877300D01*
X38535970Y-63971933D01*
X38617508Y-64004876D01*
X38824167Y-63917154D01*
X39254684Y-62851588D01*
X38907295Y-62711234D01*
X39585338Y-62711234D01*
X40372749Y-63029368D01*
X40579409Y-62941647D01*
X40819366Y-62347731D01*
X40817162Y-62095122D01*
X40718456Y-61862585D01*
X40538276Y-61685522D01*
X40304052Y-61590889D01*
X40222514Y-61557946D01*
X40015855Y-61645668D01*
X39585338Y-62711234D01*
X38907295Y-62711234D01*
X38467273Y-62533454D01*
X38260613Y-62621175D01*
X38020656Y-63215091D01*
X37215022Y-63215091D01*
X37215022Y-62757615D01*
X37217225Y-62754255D01*
X37485080Y-62091290D01*
X38474701Y-62091290D01*
X38562423Y-62297949D01*
X39349834Y-62616084D01*
X39780350Y-61550518D01*
X39692629Y-61343858D01*
X39611091Y-61310915D01*
X39376867Y-61216282D01*
X39124258Y-61218487D01*
X38891721Y-61317194D01*
X38714659Y-61497374D01*
X38474701Y-62091290D01*
X37485080Y-62091290D01*
X37816595Y-61270761D01*
X37863714Y-61022576D01*
X37840666Y-60911767D01*
X52087065Y-60911767D01*
X52089269Y-61164376D01*
X52339556Y-61754014D01*
X52547714Y-61838115D01*
X53012444Y-61640849D01*
X53662507Y-61640849D01*
X54111555Y-62698739D01*
X54319713Y-62782841D01*
X54400664Y-62748480D01*
X54633201Y-62649774D01*
X54810263Y-62469593D01*
X54815786Y-62455923D01*
X55024151Y-62742714D01*
X55245894Y-62777834D01*
X56256558Y-62043544D01*
X55685378Y-61257381D01*
X55463635Y-61222261D01*
X55068883Y-61509065D01*
X54864510Y-61657551D01*
X54805513Y-61753825D01*
X54652404Y-61393122D01*
X54444246Y-61309021D01*
X53662507Y-61640849D01*
X53012444Y-61640849D01*
X53329453Y-61506287D01*
X52880405Y-60448397D01*
X52672247Y-60364295D01*
X52591296Y-60398656D01*
X52358759Y-60497362D01*
X52181697Y-60677543D01*
X52087065Y-60911767D01*
X37840666Y-60911767D01*
X37812271Y-60775251D01*
X37670095Y-60566439D01*
X37458834Y-60427930D01*
X37263849Y-60349151D01*
X53114214Y-60349151D01*
X53563261Y-61407041D01*
X54345000Y-61075213D01*
X54429102Y-60867054D01*
X54178815Y-60277416D01*
X53998635Y-60100354D01*
X53764411Y-60005720D01*
X53511802Y-60007925D01*
X53279265Y-60106631D01*
X53198315Y-60140992D01*
X53114214Y-60349151D01*
X37263849Y-60349151D01*
X36531650Y-60053324D01*
X36283465Y-60006205D01*
X36036140Y-60057648D01*
X35827328Y-60199823D01*
X35688819Y-60411085D01*
X35136864Y-61777222D01*
X35047779Y-61714844D01*
X34648081Y-61434973D01*
X34426985Y-61473958D01*
X33869613Y-62269969D01*
X34892938Y-62986509D01*
X35114034Y-62947524D01*
X35319696Y-62653808D01*
X35447210Y-62737410D01*
X35691022Y-62835916D01*
X35691022Y-63757979D01*
X35676095Y-63833022D01*
X35691022Y-63908065D01*
X35691022Y-63908069D01*
X35719657Y-64052027D01*
X35611883Y-63944253D01*
X35569371Y-63880629D01*
X35317317Y-63712212D01*
X35095048Y-63668000D01*
X35095043Y-63668000D01*
X35020000Y-63653073D01*
X34944957Y-63668000D01*
X34609551Y-63668000D01*
X34786235Y-63415670D01*
X34747250Y-63194574D01*
X33723924Y-62478034D01*
X33712453Y-62494417D01*
X33504387Y-62348728D01*
X33515859Y-62332345D01*
X32492534Y-61615805D01*
X32271438Y-61654790D01*
X32049451Y-61971820D01*
X31259803Y-61182173D01*
X31340995Y-61060660D01*
X31354183Y-61040923D01*
X31354183Y-61040922D01*
X31354184Y-61040921D01*
X31398396Y-60818652D01*
X31398396Y-60818648D01*
X31413323Y-60743605D01*
X31398396Y-60668562D01*
X31398396Y-60355852D01*
X32086496Y-60355852D01*
X32086496Y-60580358D01*
X32148679Y-60642542D01*
X32327308Y-60821170D01*
X32560697Y-60917843D01*
X32787455Y-60917842D01*
X32599237Y-61186644D01*
X32638222Y-61407740D01*
X33661548Y-62124280D01*
X34218921Y-61328269D01*
X34179936Y-61107174D01*
X33780238Y-60827302D01*
X33573304Y-60682406D01*
X33326674Y-60627730D01*
X33221621Y-60646254D01*
X33499648Y-60368226D01*
X33499648Y-60143720D01*
X32899138Y-59543209D01*
X32086496Y-60355852D01*
X31398396Y-60355852D01*
X31398396Y-59831198D01*
X31441572Y-59935434D01*
X31620200Y-60114063D01*
X31682384Y-60176246D01*
X31906890Y-60176246D01*
X32719533Y-59363604D01*
X33078743Y-59363604D01*
X33679254Y-59964114D01*
X33903760Y-59964114D01*
X34356704Y-59511171D01*
X34453376Y-59277782D01*
X34453377Y-59025163D01*
X34356704Y-58791774D01*
X34178076Y-58613145D01*
X34115892Y-58550962D01*
X33891386Y-58550962D01*
X33078743Y-59363604D01*
X32719533Y-59363604D01*
X32119022Y-58763094D01*
X31894516Y-58763094D01*
X31441572Y-59216037D01*
X31398396Y-59320274D01*
X31398396Y-58358982D01*
X32298628Y-58358982D01*
X32298628Y-58583488D01*
X32899138Y-59183999D01*
X33711780Y-58371356D01*
X33711780Y-58146850D01*
X33649597Y-58084666D01*
X33470968Y-57906038D01*
X33237579Y-57809365D01*
X32984960Y-57809366D01*
X32751571Y-57906038D01*
X32298628Y-58358982D01*
X31398396Y-58358982D01*
X31398396Y-57961587D01*
X32013444Y-57346539D01*
X32153792Y-57136495D01*
X32203075Y-56888730D01*
X32177951Y-56762421D01*
X57809365Y-56762421D01*
X57809366Y-57015040D01*
X57906038Y-57248429D01*
X58358982Y-57701372D01*
X58583488Y-57701372D01*
X59183999Y-57100862D01*
X59543209Y-57100862D01*
X60355852Y-57913504D01*
X60580358Y-57913504D01*
X60642542Y-57851321D01*
X60821170Y-57672692D01*
X60917843Y-57439303D01*
X60917842Y-57186684D01*
X60821170Y-56953295D01*
X60368226Y-56500352D01*
X60143720Y-56500352D01*
X59543209Y-57100862D01*
X59183999Y-57100862D01*
X58371356Y-56288220D01*
X58146850Y-56288220D01*
X58084666Y-56350403D01*
X57906038Y-56529032D01*
X57809365Y-56762421D01*
X32177951Y-56762421D01*
X32153792Y-56640965D01*
X32013444Y-56430921D01*
X31466631Y-55884108D01*
X58550962Y-55884108D01*
X58550962Y-56108614D01*
X59363604Y-56921257D01*
X59893318Y-56391542D01*
X60601110Y-56391542D01*
X60623128Y-56643200D01*
X60739774Y-56867275D01*
X61094498Y-57164924D01*
X61318150Y-57145357D01*
X62121152Y-56188376D01*
X61376749Y-55563747D01*
X61153097Y-55583314D01*
X60839454Y-55957098D01*
X60677074Y-56150616D01*
X60601110Y-56391542D01*
X59893318Y-56391542D01*
X59964114Y-56320746D01*
X59964114Y-56096240D01*
X59511171Y-55643296D01*
X59277782Y-55546624D01*
X59025163Y-55546623D01*
X58791774Y-55643296D01*
X58613145Y-55821924D01*
X58550962Y-55884108D01*
X31466631Y-55884108D01*
X31306337Y-55723814D01*
X31096293Y-55583466D01*
X30848528Y-55534183D01*
X30600763Y-55583466D01*
X30390719Y-55723814D01*
X29420061Y-56694472D01*
X29291594Y-56496650D01*
X29025842Y-56087429D01*
X28806241Y-56040751D01*
X27991263Y-56570004D01*
X28671654Y-57617713D01*
X28891254Y-57664391D01*
X29111202Y-57521555D01*
X29119000Y-57560759D01*
X29259348Y-57770803D01*
X29874397Y-58385852D01*
X29874396Y-60427974D01*
X29704253Y-60598117D01*
X29701341Y-60600063D01*
X29701341Y-60164383D01*
X29716268Y-60089340D01*
X29701341Y-60014297D01*
X29701341Y-60014293D01*
X29657129Y-59792024D01*
X29604862Y-59713800D01*
X29531223Y-59603592D01*
X29488712Y-59539970D01*
X29425090Y-59497459D01*
X28103557Y-58175927D01*
X28411954Y-57975652D01*
X28458631Y-57756052D01*
X27778241Y-56708342D01*
X27761468Y-56719235D01*
X27623129Y-56506213D01*
X27639903Y-56495320D01*
X26959512Y-55447611D01*
X26739912Y-55400933D01*
X26532000Y-55535953D01*
X26532000Y-55309272D01*
X27172535Y-55309272D01*
X27852925Y-56356982D01*
X28667903Y-55827729D01*
X28714581Y-55608128D01*
X28448829Y-55198907D01*
X28311243Y-54987042D01*
X28123118Y-54857748D01*
X28606878Y-54652404D01*
X28690979Y-54444246D01*
X28359151Y-53662507D01*
X27301261Y-54111555D01*
X27217159Y-54319713D01*
X27251520Y-54400664D01*
X27350226Y-54633201D01*
X27530407Y-54810263D01*
X27603802Y-54839916D01*
X27219212Y-55089672D01*
X27172535Y-55309272D01*
X26532000Y-55309272D01*
X26532000Y-53227549D01*
X26858584Y-53227549D01*
X26860789Y-53480158D01*
X26959495Y-53712695D01*
X26993856Y-53793645D01*
X27202015Y-53877746D01*
X27942896Y-53563261D01*
X28592959Y-53563261D01*
X28924787Y-54345000D01*
X29132946Y-54429102D01*
X29722584Y-54178815D01*
X29899646Y-53998635D01*
X29994280Y-53764411D01*
X29992075Y-53511802D01*
X29893369Y-53279265D01*
X29859008Y-53198315D01*
X29650849Y-53114214D01*
X28592959Y-53563261D01*
X27942896Y-53563261D01*
X28259905Y-53428699D01*
X27928077Y-52646960D01*
X27719918Y-52562858D01*
X27130280Y-52813145D01*
X26953218Y-52993325D01*
X26858584Y-53227549D01*
X26532000Y-53227549D01*
X26532000Y-52547714D01*
X28161885Y-52547714D01*
X28493713Y-53329453D01*
X29551603Y-52880405D01*
X29635705Y-52672247D01*
X29601344Y-52591296D01*
X29502638Y-52358759D01*
X29322457Y-52181697D01*
X29088233Y-52087065D01*
X28835624Y-52089269D01*
X28245986Y-52339556D01*
X28161885Y-52547714D01*
X26532000Y-52547714D01*
X26532000Y-52272086D01*
X26884096Y-51919990D01*
X26888029Y-51919172D01*
X28360836Y-51294003D01*
X28569648Y-51151828D01*
X28708157Y-50940566D01*
X28755276Y-50692381D01*
X28703833Y-50445056D01*
X28313102Y-49524551D01*
X28170927Y-49315739D01*
X27959665Y-49177230D01*
X27711480Y-49130111D01*
X27464155Y-49181554D01*
X26220108Y-49709620D01*
X26232485Y-49600987D01*
X26162854Y-49358154D01*
X26028359Y-48889115D01*
X25832001Y-48780272D01*
X24897895Y-49048122D01*
X25242235Y-50248978D01*
X25438593Y-50357821D01*
X25616167Y-50306903D01*
X25596908Y-50408345D01*
X25648351Y-50655670D01*
X25751098Y-50897727D01*
X25284251Y-51364575D01*
X25220630Y-51407085D01*
X25178119Y-51470707D01*
X25178118Y-51470708D01*
X25052213Y-51659139D01*
X24993073Y-51956456D01*
X25008001Y-52031504D01*
X25008000Y-53999464D01*
X23903649Y-50918575D01*
X23797769Y-50234430D01*
X23814912Y-50294214D01*
X23972171Y-50491916D01*
X24193116Y-50614387D01*
X24444111Y-50642984D01*
X24889232Y-50515348D01*
X24998075Y-50318990D01*
X24653735Y-49118134D01*
X24634509Y-49123647D01*
X24564498Y-48879487D01*
X24583723Y-48873974D01*
X24239383Y-47673118D01*
X24113078Y-47603106D01*
X24483543Y-47603106D01*
X24827883Y-48803962D01*
X25761989Y-48536111D01*
X25870832Y-48339753D01*
X25736337Y-47870715D01*
X25697421Y-47735000D01*
X26214250Y-47735000D01*
X26373000Y-47576250D01*
X26373000Y-46727000D01*
X25223750Y-46727000D01*
X25065000Y-46885750D01*
X25065000Y-47226310D01*
X25089316Y-47285015D01*
X25037507Y-47279112D01*
X24592386Y-47406748D01*
X24483543Y-47603106D01*
X24113078Y-47603106D01*
X24043025Y-47564275D01*
X23597904Y-47691911D01*
X23425507Y-47829043D01*
X23387208Y-47581575D01*
X23421484Y-45973690D01*
X25065000Y-45973690D01*
X25065000Y-46314250D01*
X25223750Y-46473000D01*
X26373000Y-46473000D01*
X26373000Y-45623750D01*
X26214250Y-45465000D01*
X25573691Y-45465000D01*
X25340302Y-45561673D01*
X25161673Y-45740301D01*
X25065000Y-45973690D01*
X23421484Y-45973690D01*
X23442647Y-44980984D01*
X23605750Y-44817881D01*
X23669371Y-44775371D01*
X23837788Y-44523317D01*
X23882000Y-44301048D01*
X23882000Y-44301043D01*
X23896927Y-44226000D01*
X23882000Y-44150957D01*
X23882000Y-42439135D01*
X24089050Y-42483145D01*
X24196018Y-42413679D01*
X24525786Y-42413679D01*
X24648061Y-42601966D01*
X25093029Y-42696547D01*
X25052560Y-42900000D01*
X25052560Y-43900000D01*
X25101843Y-44147765D01*
X25242191Y-44357809D01*
X25452235Y-44498157D01*
X25700000Y-44547440D01*
X25846440Y-44547440D01*
X25950629Y-44703371D01*
X26014253Y-44745883D01*
X26759560Y-45491190D01*
X26627000Y-45623750D01*
X26627000Y-46473000D01*
X26647000Y-46473000D01*
X26647000Y-46727000D01*
X26627000Y-46727000D01*
X26627000Y-47576250D01*
X26785750Y-47735000D01*
X27426309Y-47735000D01*
X27659698Y-47638327D01*
X27838327Y-47459699D01*
X27935000Y-47226310D01*
X27935000Y-46885750D01*
X27776252Y-46727002D01*
X27935000Y-46727002D01*
X27935000Y-46666630D01*
X33596618Y-52328249D01*
X33639129Y-52391871D01*
X33891183Y-52560288D01*
X34113452Y-52604500D01*
X34113457Y-52604500D01*
X34188500Y-52619427D01*
X34263543Y-52604500D01*
X43430308Y-52604500D01*
X43451843Y-52712765D01*
X43592191Y-52922809D01*
X43802235Y-53063157D01*
X44050000Y-53112440D01*
X45850000Y-53112440D01*
X46097765Y-53063157D01*
X46307809Y-52922809D01*
X46448157Y-52712765D01*
X46497440Y-52465000D01*
X46497440Y-51220000D01*
X46475068Y-51107528D01*
X46530000Y-51118455D01*
X46617752Y-51101000D01*
X46877651Y-51049303D01*
X47172375Y-50852375D01*
X47222084Y-50777980D01*
X47376931Y-50623133D01*
X61216282Y-50623133D01*
X61218487Y-50875742D01*
X61317194Y-51108279D01*
X61497374Y-51285341D01*
X62091290Y-51525299D01*
X62297949Y-51437577D01*
X62616084Y-50650166D01*
X62268696Y-50509812D01*
X62946738Y-50509812D01*
X64012304Y-50940328D01*
X64218964Y-50852607D01*
X64251907Y-50771069D01*
X64346540Y-50536845D01*
X64344471Y-50299785D01*
X64433735Y-50315525D01*
X64617640Y-50186753D01*
X64834570Y-48956482D01*
X63877583Y-48787740D01*
X63693678Y-48916511D01*
X63608948Y-49397039D01*
X63565081Y-49645820D01*
X63571572Y-49675098D01*
X63471532Y-49634679D01*
X63264873Y-49722401D01*
X62946738Y-50509812D01*
X62268696Y-50509812D01*
X61550518Y-50219650D01*
X61343858Y-50307371D01*
X61310915Y-50388909D01*
X61216282Y-50623133D01*
X47376931Y-50623133D01*
X47580564Y-50419500D01*
X47614726Y-50419500D01*
X48011488Y-50255156D01*
X48315156Y-49951488D01*
X48387229Y-49777486D01*
X61557946Y-49777486D01*
X61645668Y-49984145D01*
X62711234Y-50414662D01*
X63029368Y-49627251D01*
X62941647Y-49420591D01*
X62347731Y-49180634D01*
X62095122Y-49182838D01*
X61862585Y-49281544D01*
X61685522Y-49461724D01*
X61590889Y-49695948D01*
X61557946Y-49777486D01*
X48387229Y-49777486D01*
X48479500Y-49554726D01*
X48479500Y-49125274D01*
X48315156Y-48728512D01*
X48011488Y-48424844D01*
X47614726Y-48260500D01*
X47185274Y-48260500D01*
X46788512Y-48424844D01*
X46497440Y-48715916D01*
X46497440Y-48035000D01*
X46448157Y-47787235D01*
X46307809Y-47577191D01*
X46097765Y-47436843D01*
X46052488Y-47427837D01*
X46250000Y-47132239D01*
X46449375Y-47430625D01*
X46940582Y-47758839D01*
X47373744Y-47845000D01*
X47666256Y-47845000D01*
X48099418Y-47758839D01*
X48590625Y-47430625D01*
X48918839Y-46939418D01*
X49034092Y-46360000D01*
X48918839Y-45780582D01*
X48590625Y-45289375D01*
X48572381Y-45277184D01*
X48617765Y-45268157D01*
X48827809Y-45127809D01*
X48968157Y-44917765D01*
X49017440Y-44670000D01*
X49017440Y-43685750D01*
X62065000Y-43685750D01*
X62065000Y-44026310D01*
X62161673Y-44259699D01*
X62340302Y-44438327D01*
X62573691Y-44535000D01*
X63214250Y-44535000D01*
X63373000Y-44376250D01*
X63373000Y-43527000D01*
X63627000Y-43527000D01*
X63627000Y-44376250D01*
X63785750Y-44535000D01*
X64426309Y-44535000D01*
X64659698Y-44438327D01*
X64838327Y-44259699D01*
X64935000Y-44026310D01*
X64935000Y-43685750D01*
X64776250Y-43527000D01*
X63627000Y-43527000D01*
X63373000Y-43527000D01*
X62223750Y-43527000D01*
X62065000Y-43685750D01*
X49017440Y-43685750D01*
X49017440Y-42970000D01*
X48978392Y-42773690D01*
X62065000Y-42773690D01*
X62065000Y-43114250D01*
X62223750Y-43273000D01*
X63373000Y-43273000D01*
X63373000Y-42423750D01*
X63627000Y-42423750D01*
X63627000Y-43273000D01*
X64776250Y-43273000D01*
X64935000Y-43114250D01*
X64935000Y-42773690D01*
X64904429Y-42699886D01*
X64983037Y-42678823D01*
X65095290Y-42484394D01*
X64771960Y-41277712D01*
X63833322Y-41529219D01*
X63721069Y-41723647D01*
X63847357Y-42194962D01*
X63866124Y-42265000D01*
X63785750Y-42265000D01*
X63627000Y-42423750D01*
X63373000Y-42423750D01*
X63214250Y-42265000D01*
X62573691Y-42265000D01*
X62340302Y-42361673D01*
X62161673Y-42540301D01*
X62065000Y-42773690D01*
X48978392Y-42773690D01*
X48968157Y-42722235D01*
X48827809Y-42512191D01*
X48617765Y-42371843D01*
X48370000Y-42322560D01*
X46670000Y-42322560D01*
X46422235Y-42371843D01*
X46212191Y-42512191D01*
X46071843Y-42722235D01*
X46062816Y-42767619D01*
X46050625Y-42749375D01*
X45559418Y-42421161D01*
X45126256Y-42335000D01*
X44833744Y-42335000D01*
X44400582Y-42421161D01*
X43909375Y-42749375D01*
X43710000Y-43047761D01*
X43510625Y-42749375D01*
X43019418Y-42421161D01*
X42586256Y-42335000D01*
X42293744Y-42335000D01*
X41860582Y-42421161D01*
X41369375Y-42749375D01*
X41041161Y-43240582D01*
X40925908Y-43820000D01*
X41041161Y-44399418D01*
X41369375Y-44890625D01*
X41669786Y-45091353D01*
X41244817Y-45478642D01*
X40998514Y-46003108D01*
X41119181Y-46233000D01*
X42313000Y-46233000D01*
X42313000Y-46213000D01*
X42567000Y-46213000D01*
X42567000Y-46233000D01*
X42587000Y-46233000D01*
X42587000Y-46487000D01*
X42567000Y-46487000D01*
X42567000Y-47680155D01*
X42796890Y-47801476D01*
X43206924Y-47631645D01*
X43635183Y-47241358D01*
X43696157Y-47111522D01*
X43900473Y-47417302D01*
X43802235Y-47436843D01*
X43592191Y-47577191D01*
X43451843Y-47787235D01*
X43402560Y-48035000D01*
X43402560Y-49172496D01*
X43389500Y-49159436D01*
X43389500Y-49125274D01*
X43225156Y-48728512D01*
X42921488Y-48424844D01*
X42524726Y-48260500D01*
X42095274Y-48260500D01*
X41698512Y-48424844D01*
X41394844Y-48728512D01*
X41230500Y-49125274D01*
X41230500Y-49554726D01*
X41394844Y-49951488D01*
X41698512Y-50255156D01*
X42095274Y-50419500D01*
X42129436Y-50419500D01*
X42487916Y-50777980D01*
X42537625Y-50852375D01*
X42808026Y-51033051D01*
X42832349Y-51049303D01*
X42989187Y-51080500D01*
X34504131Y-51080500D01*
X30140523Y-46716892D01*
X40998514Y-46716892D01*
X41244817Y-47241358D01*
X41673076Y-47631645D01*
X42083110Y-47801476D01*
X42313000Y-47680155D01*
X42313000Y-46487000D01*
X41119181Y-46487000D01*
X40998514Y-46716892D01*
X30140523Y-46716892D01*
X27767274Y-44343644D01*
X27898157Y-44147765D01*
X27947440Y-43900000D01*
X27947440Y-42900000D01*
X27898157Y-42652235D01*
X27757809Y-42442191D01*
X27547765Y-42301843D01*
X27300000Y-42252560D01*
X25715790Y-42252560D01*
X25756861Y-42059332D01*
X25858310Y-41582054D01*
X25736035Y-41393767D01*
X24785520Y-41191729D01*
X24525786Y-42413679D01*
X24196018Y-42413679D01*
X24277337Y-42360870D01*
X24537070Y-41138919D01*
X24517507Y-41134761D01*
X24558208Y-40943279D01*
X24838330Y-40943279D01*
X25788844Y-41145317D01*
X25977131Y-41023042D01*
X26078580Y-40545764D01*
X26115355Y-40372749D01*
X26970632Y-40372749D01*
X27058353Y-40579409D01*
X27652269Y-40819366D01*
X27904878Y-40817162D01*
X28137415Y-40718456D01*
X28314478Y-40538276D01*
X28409111Y-40304052D01*
X28442054Y-40222514D01*
X28354332Y-40015855D01*
X27288766Y-39585338D01*
X26970632Y-40372749D01*
X26115355Y-40372749D01*
X26131102Y-40298665D01*
X26112292Y-40197175D01*
X26528468Y-40365321D01*
X26735127Y-40277599D01*
X27053262Y-39490188D01*
X26705874Y-39349834D01*
X27383916Y-39349834D01*
X28449482Y-39780350D01*
X28656142Y-39692629D01*
X28689085Y-39611091D01*
X28783718Y-39376867D01*
X28781513Y-39124258D01*
X28682806Y-38891721D01*
X28502626Y-38714659D01*
X27908710Y-38474701D01*
X27702051Y-38562423D01*
X27383916Y-39349834D01*
X26705874Y-39349834D01*
X25987696Y-39059672D01*
X25781036Y-39147393D01*
X25748093Y-39228931D01*
X25653460Y-39463155D01*
X25655331Y-39677483D01*
X25286350Y-39599053D01*
X25098063Y-39721328D01*
X24838330Y-40943279D01*
X24558208Y-40943279D01*
X24570318Y-40886311D01*
X24589880Y-40890469D01*
X24849614Y-39668519D01*
X24817918Y-39619712D01*
X26113762Y-38323869D01*
X26028067Y-38535970D01*
X25995124Y-38617508D01*
X26082846Y-38824167D01*
X27148412Y-39254684D01*
X27466546Y-38467273D01*
X27378825Y-38260613D01*
X26784909Y-38020656D01*
X26532300Y-38022860D01*
X26328088Y-38109543D01*
X27222609Y-37215022D01*
X27242385Y-37215022D01*
X27245745Y-37217225D01*
X28729239Y-37816595D01*
X28977424Y-37863714D01*
X29224749Y-37812271D01*
X29433561Y-37670095D01*
X29572070Y-37458834D01*
X29625030Y-37327753D01*
X60364295Y-37327753D01*
X60398656Y-37408704D01*
X60497362Y-37641241D01*
X60677543Y-37818303D01*
X60911767Y-37912935D01*
X61164376Y-37910731D01*
X61754014Y-37660444D01*
X61838115Y-37452286D01*
X61506287Y-36670547D01*
X60448397Y-37119595D01*
X60364295Y-37327753D01*
X29625030Y-37327753D01*
X29946676Y-36531650D01*
X29993795Y-36283465D01*
X29983837Y-36235589D01*
X60005720Y-36235589D01*
X60007925Y-36488198D01*
X60106631Y-36720735D01*
X60140992Y-36801685D01*
X60349151Y-36885786D01*
X61407041Y-36436739D01*
X61075213Y-35655000D01*
X60867054Y-35570898D01*
X60277416Y-35821185D01*
X60100354Y-36001365D01*
X60005720Y-36235589D01*
X29983837Y-36235589D01*
X29942352Y-36036140D01*
X29800177Y-35827328D01*
X29588915Y-35688819D01*
X28374237Y-35198057D01*
X28475592Y-35041983D01*
X28741344Y-34632762D01*
X28694666Y-34413161D01*
X27879688Y-33883908D01*
X27199298Y-34931618D01*
X27245975Y-35151218D01*
X27393738Y-35247176D01*
X27262590Y-35447210D01*
X27164084Y-35691022D01*
X26982025Y-35691022D01*
X26906978Y-35676094D01*
X26831931Y-35691022D01*
X26831930Y-35691022D01*
X26609661Y-35735234D01*
X26517129Y-35797062D01*
X26471833Y-35827328D01*
X26357607Y-35903651D01*
X26315096Y-35967273D01*
X23938167Y-38344202D01*
X24562799Y-36732785D01*
X26578093Y-34717491D01*
X26766675Y-34839957D01*
X26986275Y-34793279D01*
X27666666Y-33745570D01*
X27649892Y-33734677D01*
X27691318Y-33670886D01*
X28018026Y-33670886D01*
X28833004Y-34200139D01*
X29052605Y-34153461D01*
X29295618Y-33779254D01*
X30235886Y-33779254D01*
X30235886Y-34003760D01*
X30688829Y-34456704D01*
X30922218Y-34553376D01*
X31174837Y-34553377D01*
X31408226Y-34456704D01*
X31586855Y-34278076D01*
X31649038Y-34215892D01*
X31649038Y-33991386D01*
X30836396Y-33178743D01*
X30235886Y-33779254D01*
X29295618Y-33779254D01*
X29318357Y-33744240D01*
X29455943Y-33532376D01*
X29501979Y-33283987D01*
X29498164Y-33266039D01*
X29831774Y-33599648D01*
X30056280Y-33599648D01*
X30656791Y-32999138D01*
X31016001Y-32999138D01*
X31828644Y-33811780D01*
X32053150Y-33811780D01*
X32115334Y-33749597D01*
X32293962Y-33570968D01*
X32390635Y-33337579D01*
X32390634Y-33084960D01*
X32293962Y-32851571D01*
X31841018Y-32398628D01*
X31616512Y-32398628D01*
X31016001Y-32999138D01*
X30656791Y-32999138D01*
X29844148Y-32186496D01*
X29619642Y-32186496D01*
X29557458Y-32248679D01*
X29378830Y-32427308D01*
X29282157Y-32660697D01*
X29282158Y-32812975D01*
X28918017Y-32576499D01*
X28698417Y-32623177D01*
X28018026Y-33670886D01*
X27691318Y-33670886D01*
X27788231Y-33521655D01*
X27805004Y-33532548D01*
X28485394Y-32484838D01*
X28438717Y-32265238D01*
X28283313Y-32164318D01*
X28949235Y-31498396D01*
X30368802Y-31498396D01*
X30264566Y-31541572D01*
X30085937Y-31720200D01*
X30023754Y-31782384D01*
X30023754Y-32006890D01*
X30836396Y-32819533D01*
X31436906Y-32219022D01*
X31436906Y-31994516D01*
X30983963Y-31541572D01*
X30879726Y-31498396D01*
X32238413Y-31498396D01*
X32853461Y-32113444D01*
X33063505Y-32253792D01*
X33311270Y-32303075D01*
X33559035Y-32253792D01*
X33769079Y-32113444D01*
X34053879Y-31828644D01*
X56288220Y-31828644D01*
X56288220Y-32053150D01*
X56350403Y-32115334D01*
X56529032Y-32293962D01*
X56762421Y-32390635D01*
X57015040Y-32390634D01*
X57248429Y-32293962D01*
X57701372Y-31841018D01*
X57701372Y-31616512D01*
X57100862Y-31016001D01*
X56288220Y-31828644D01*
X34053879Y-31828644D01*
X34476186Y-31406337D01*
X34616534Y-31196293D01*
X34620801Y-31174837D01*
X55546623Y-31174837D01*
X55643296Y-31408226D01*
X55821924Y-31586855D01*
X55884108Y-31649038D01*
X56108614Y-31649038D01*
X56921257Y-30836396D01*
X56320746Y-30235886D01*
X56096240Y-30235886D01*
X55643296Y-30688829D01*
X55546624Y-30922218D01*
X55546623Y-31174837D01*
X34620801Y-31174837D01*
X34665817Y-30948528D01*
X34616534Y-30700763D01*
X34476186Y-30490719D01*
X33344815Y-29359348D01*
X33257646Y-29301103D01*
X33474886Y-29248949D01*
X33634550Y-29132946D01*
X35570898Y-29132946D01*
X35821185Y-29722584D01*
X36001365Y-29899646D01*
X36235589Y-29994280D01*
X36488198Y-29992075D01*
X36720735Y-29893369D01*
X36801685Y-29859008D01*
X36885786Y-29650849D01*
X36436739Y-28592959D01*
X35655000Y-28924787D01*
X35570898Y-29132946D01*
X33634550Y-29132946D01*
X33679259Y-29100463D01*
X34074011Y-28813659D01*
X34109132Y-28591916D01*
X33537952Y-27805754D01*
X32527287Y-28540045D01*
X32492167Y-28761787D01*
X32764346Y-29136410D01*
X32835437Y-29179975D01*
X32639241Y-29219000D01*
X32429197Y-29359348D01*
X31814149Y-29974396D01*
X30258753Y-29974396D01*
X30275487Y-29949351D01*
X32059107Y-28165732D01*
X32156247Y-28299434D01*
X32377990Y-28334554D01*
X33311312Y-27656456D01*
X33743442Y-27656456D01*
X34314622Y-28442619D01*
X34536365Y-28477739D01*
X34931117Y-28190935D01*
X35114487Y-28057709D01*
X35347596Y-28606878D01*
X35555754Y-28690979D01*
X36020484Y-28493713D01*
X36670547Y-28493713D01*
X37119595Y-29551603D01*
X37327753Y-29635705D01*
X37408704Y-29601344D01*
X37641241Y-29502638D01*
X37818303Y-29322457D01*
X37912935Y-29088233D01*
X37910731Y-28835624D01*
X37660444Y-28245986D01*
X37452286Y-28161885D01*
X36670547Y-28493713D01*
X36020484Y-28493713D01*
X36337493Y-28359151D01*
X35888445Y-27301261D01*
X35680287Y-27217159D01*
X35599336Y-27251520D01*
X35366799Y-27350226D01*
X35274881Y-27443763D01*
X35248028Y-27331909D01*
X35153655Y-27202015D01*
X36122254Y-27202015D01*
X36571301Y-28259905D01*
X37353040Y-27928077D01*
X37437142Y-27719918D01*
X37186855Y-27130280D01*
X37006675Y-26953218D01*
X36772451Y-26858584D01*
X36519842Y-26860789D01*
X36287305Y-26959495D01*
X36206355Y-26993856D01*
X36122254Y-27202015D01*
X35153655Y-27202015D01*
X34975849Y-26957286D01*
X34754106Y-26922166D01*
X33743442Y-27656456D01*
X33311312Y-27656456D01*
X33388654Y-27600264D01*
X33376898Y-27584083D01*
X33582389Y-27434786D01*
X33594144Y-27450966D01*
X34604809Y-26716675D01*
X34639929Y-26494933D01*
X34586940Y-26422000D01*
X37617914Y-26422000D01*
X38080010Y-26884097D01*
X38080828Y-26888029D01*
X38705997Y-28360836D01*
X38848172Y-28569648D01*
X39059434Y-28708157D01*
X39307619Y-28755276D01*
X39554944Y-28703833D01*
X39918572Y-28549482D01*
X50619650Y-28549482D01*
X50707371Y-28756142D01*
X50788909Y-28789085D01*
X51023133Y-28883718D01*
X51275742Y-28881513D01*
X51508279Y-28782806D01*
X51685341Y-28602626D01*
X51925299Y-28008710D01*
X51837577Y-27802051D01*
X51050166Y-27483916D01*
X50619650Y-28549482D01*
X39918572Y-28549482D01*
X40475449Y-28313102D01*
X40684261Y-28170927D01*
X40822770Y-27959665D01*
X40869889Y-27711480D01*
X40818446Y-27464155D01*
X40530481Y-26785750D01*
X42265000Y-26785750D01*
X42265000Y-27426309D01*
X42361673Y-27659698D01*
X42540301Y-27838327D01*
X42773690Y-27935000D01*
X43114250Y-27935000D01*
X43273000Y-27776250D01*
X43273000Y-26627000D01*
X43527000Y-26627000D01*
X43527000Y-27776250D01*
X43685750Y-27935000D01*
X44026310Y-27935000D01*
X44259699Y-27838327D01*
X44438327Y-27659698D01*
X44535000Y-27426309D01*
X44535000Y-26785750D01*
X44376250Y-26627000D01*
X43527000Y-26627000D01*
X43273000Y-26627000D01*
X42423750Y-26627000D01*
X42265000Y-26785750D01*
X40530481Y-26785750D01*
X40383969Y-26440591D01*
X40411099Y-26440354D01*
X40643636Y-26341648D01*
X41092788Y-26150994D01*
X41176890Y-25942836D01*
X40797197Y-25048335D01*
X39647256Y-25536456D01*
X39620611Y-25602405D01*
X39591655Y-25596908D01*
X39344330Y-25648351D01*
X39102273Y-25751098D01*
X38688276Y-25337102D01*
X38909371Y-25189371D01*
X38951883Y-25125747D01*
X39196589Y-24881041D01*
X39339852Y-25218546D01*
X39548010Y-25302648D01*
X40380942Y-24949089D01*
X41031005Y-24949089D01*
X41410698Y-25843590D01*
X41618857Y-25927691D01*
X42068009Y-25737038D01*
X42265000Y-25653420D01*
X42265000Y-26214250D01*
X42423750Y-26373000D01*
X43273000Y-26373000D01*
X43273000Y-25223750D01*
X43527000Y-25223750D01*
X43527000Y-26373000D01*
X44376250Y-26373000D01*
X44535000Y-26214250D01*
X44535000Y-25573691D01*
X44438327Y-25340302D01*
X44259699Y-25161673D01*
X44026310Y-25065000D01*
X43685750Y-25065000D01*
X43527000Y-25223750D01*
X43273000Y-25223750D01*
X43114250Y-25065000D01*
X42773690Y-25065000D01*
X42571584Y-25148715D01*
X42570036Y-24971318D01*
X42389104Y-24545070D01*
X42180946Y-24460968D01*
X41031005Y-24949089D01*
X40380942Y-24949089D01*
X40697951Y-24814527D01*
X40690136Y-24796116D01*
X40923944Y-24696871D01*
X40931759Y-24715281D01*
X42081700Y-24227160D01*
X42165802Y-24019001D01*
X42048222Y-23742000D01*
X43064370Y-23742000D01*
X45452560Y-26130190D01*
X45452560Y-27300000D01*
X45501843Y-27547765D01*
X45642191Y-27757809D01*
X45852235Y-27898157D01*
X46100000Y-27947440D01*
X47100000Y-27947440D01*
X47347765Y-27898157D01*
X47557809Y-27757809D01*
X47561510Y-27752269D01*
X49580634Y-27752269D01*
X49582838Y-28004878D01*
X49681544Y-28237415D01*
X49861724Y-28414478D01*
X50095948Y-28509111D01*
X50177486Y-28542054D01*
X50384145Y-28454332D01*
X50814662Y-27388766D01*
X50467273Y-27248412D01*
X51145316Y-27248412D01*
X51932727Y-27566546D01*
X52139387Y-27478825D01*
X52379344Y-26884909D01*
X52377140Y-26632300D01*
X52278434Y-26399763D01*
X52098254Y-26222700D01*
X51864030Y-26128067D01*
X51782492Y-26095124D01*
X51575833Y-26182846D01*
X51145316Y-27248412D01*
X50467273Y-27248412D01*
X50027251Y-27070632D01*
X49820591Y-27158353D01*
X49580634Y-27752269D01*
X47561510Y-27752269D01*
X47698157Y-27547765D01*
X47747440Y-27300000D01*
X47747440Y-25700000D01*
X47698157Y-25452235D01*
X47557809Y-25242191D01*
X47347765Y-25101843D01*
X47100000Y-25052560D01*
X46530190Y-25052560D01*
X46512739Y-25035109D01*
X47846797Y-25035109D01*
X47857816Y-25287487D01*
X47964577Y-25516438D01*
X48150827Y-25687105D01*
X48388211Y-25773506D01*
X48846726Y-25940391D01*
X48863897Y-25932384D01*
X49288879Y-25932384D01*
X49383760Y-26135856D01*
X49842274Y-26302741D01*
X50079659Y-26389142D01*
X50132302Y-26386844D01*
X50034679Y-26628468D01*
X50122401Y-26835127D01*
X50909812Y-27153262D01*
X51340328Y-26087696D01*
X51252607Y-25881036D01*
X51171069Y-25848093D01*
X50936845Y-25753460D01*
X50852095Y-25754200D01*
X50890029Y-25649978D01*
X50795148Y-25446506D01*
X49621237Y-25019238D01*
X49288879Y-25932384D01*
X48863897Y-25932384D01*
X49050197Y-25845511D01*
X49382555Y-24932364D01*
X48208644Y-24505096D01*
X48005173Y-24599976D01*
X47846797Y-25035109D01*
X46512739Y-25035109D01*
X44451242Y-22973612D01*
X44542564Y-22966195D01*
X45422117Y-23845748D01*
M02*
