M48
;DRILL file {KiCad 5.0-dev-unknown-bc6763e~61~ubuntu16.04.1} date Sat Feb 24 23:45:53 2018
;FORMAT={-:-/ absolute / metric / decimal}
FMAT,2
METRIC,TZ
T1C0.635
T2C1.000
%
G90
G05
M71
T1
X21.47Y-44.57
X23.15Y-35.83
X23.17Y-53.73
X28.1Y-61.44
X28.44Y-28.22
X35.83Y-66.77
X36.21Y-23.25
X40.77Y-35.87
X42.31Y-49.34
X44.709Y-68.531
X47.4Y-49.34
X49.43Y-35.87
X50.613Y-22.585
X53.78Y-66.71
X54.49Y-23.3
X61.56Y-61.886
X61.75Y-28.47
X66.67Y-53.88
X66.99Y-35.99
X68.601Y-45.221
T2
X42.44Y-43.82
X42.44Y-46.36
X44.98Y-43.82
X44.98Y-46.36
X47.52Y-43.82
X47.52Y-46.36
T0
M30
